<svg xmlns="http://www.w3.org/2000/svg" xmlns:xlink="http://www.w3.org/1999/xlink" width="189.238" height="66.248" viewBox="0 0 189.238 66.248"><defs><clipPath id="a"><rect width="73" height="15" transform="translate(127 42)" fill="#fff" stroke="#707070" stroke-width="1"/></clipPath><clipPath id="b"><rect width="72" height="14" transform="translate(205 62)" fill="#fff" stroke="#707070" stroke-width="1"/></clipPath><clipPath id="c"><rect width="72" height="14" transform="translate(279 80)" fill="#fff" stroke="#707070" stroke-width="1"/></clipPath></defs><g transform="translate(-2098.762 305)"><g transform="translate(0 33.271)"><g transform="translate(1591.866 -1244.271)"><rect width="7.313" height="1.014" transform="translate(578.101 964.281)" fill="#1b1c38"/><path d="M1.764,123.143c-2.793-6.023-1.978-17.02.4-20.477,3.635-5.3,11.969-.021,11.969-.021,3.006,4.079.021,10.92.021,10.92C11.66,118.651,4.2,123.468,1.764,123.143Z" transform="translate(506.897 836.263)" fill="#e5d9d7"/><path d="M52.87,80.775c-2.394-7.306-3.108-20.708-1.15-25.123C55,48.252,69.9,55.6,69.9,55.6c3.947,5.041-1.248,14.43-1.248,14.43C65.387,76.311,56.072,81.173,52.87,80.775Z" transform="translate(471.724 869.605)" fill="#e5d9d7"/><path d="M136.71,42.045c2.964-10.693,4.3-30.418,2.29-36.983-3.363-11-20.278-.636-20.278-.636-4.6,7.309,1.017,26.475,1.017,26.475C123.6,39.113,125.692,41.745,136.71,42.045Z" transform="translate(425.616 905.999)" fill="#e5d9d7"/><path d="M198.286,125.016c-2.394-7.155-3.108-20.281-1.15-24.6,3.279-7.246,18.184-.056,18.184-.056,3.947,4.939-1.021,15.65-1.021,15.65C211.031,122.161,201.488,125.408,198.286,125.016Z" transform="translate(370.625 838.436)" fill="#e5d9d7"/><path d="M3.457,93.372l.01,1.737c0,.58.017,1.157.024,1.737l.066,3.475c.01.58.021,1.157.042,1.737l.052,1.737.052,1.737c.014.58.038,1.157.066,1.737l.073,1.737c.028.58.045,1.157.08,1.737.007.115.014.227.017.343a13.944,13.944,0,0,1,.563-1.472l.038-19.607,11.969-.021.021,10.92q.273-.063.556-.115c.017-.357.042-.713.056-1.07l.045-1.091.094-2.185c.035-.727.049-1.454.073-2.185l.066-2.185.035-1.091.021-1.091.017-.86L16.6,89.02l-3.041-.056-1.51-.028v-.853H10.679V82.1h-.318v5.981H8.987v.832l-1.51-.01-1.521-.01c-.507-.007-1.014,0-1.521,0L3.43,88.9l.007.993Z" transform="translate(504.512 848.919)" fill="#1b1c38"/><path d="M52.312,63.638l.07,2.835.07,2.835.1,2.835c.035.944.059,1.891.1,2.835l.122,2.835c.042.944.1,1.891.147,2.835s.119,1.891.175,2.835h.112l.035-22.592,8.575.014,4.335.007,4.23-.007.024,15.262.835.157.087-3.562c.021-.664.024-1.328.035-1.992l.028-1.992.059-3.988.021-3.988,0-.982-.989,0-4.334-.021-4.335.021-2.167.01c-.724.007-1.444,0-2.167.017l-4.334.066-.905.014.014.877C52.281,61.751,52.288,62.694,52.312,63.638Z" transform="translate(470.573 864.429)" fill="#1b1c38"/><path d="M132.662,111c.3.052.6.1.891.15h2.027v-2.919h-2.919Z" transform="translate(414.664 830.753)" fill="#1b1c38"/><path d="M63.372,117.881h.678c.245-1.1.4-1.867.405-1.888a1.308,1.308,0,0,1,.416-.72h-1.5Z" transform="translate(462.837 825.857)" fill="#1b1c38"/><path d="M63.372,130.993c.087-.35.171-.7.252-1.038h-.252Z" transform="translate(462.837 815.649)" fill="#1b1c38"/><path d="M23.9,144.832v1.7h1.248c.15-.08.3-.157.454-.234v-1.468Z" transform="translate(490.277 805.307)" fill="#1b1c38"/><path d="M15.134,155.389v-.475h-1.7v1.7h.416A14.447,14.447,0,0,1,15.134,155.389Z" transform="translate(497.558 798.297)" fill="#1b1c38"/><path d="M34.387,144.832v.8c.545-.217,1.115-.416,1.7-.594v-.206Z" transform="translate(482.989 805.307)" fill="#1b1c38"/><path d="M121.565,15.582l.01,2.433.017,2.433.035,4.866.059,4.866q.026,2.433.07,4.866l.087,4.862q.026,1.18.052,2.356l.409.073.052-2.433.087-4.866q.047-2.433.07-4.866l.059-4.866.035-4.866.017-2.433.01-2.433.01-4.314,1.891,0,2.44,0,4.88-.014,2.44-.007,2.44-.017,4.4-.035c.014,1.933.045,3.866.066,5.8l.042,3.143.056,3.143c.031,2.094.087,4.188.129,6.282l.084,3.143.1,3.143.1-3.143.084-3.143c.045-2.094.1-4.188.129-6.282l.056-3.143.042-3.143c.024-2.094.059-4.188.073-6.282l0-.479-.486,0-4.88-.038-2.44-.017-2.44-.007-4.88-.014-2.44,0-2.44.007h-.552V10.7Z" transform="translate(422.391 898.95)" fill="#1b1c38"/><path d="M197.765,82.693h.112l.08-.989c.024-.329.056-.661.077-.989l.133-1.982.056-.989.056-.989c.024-.465.052-.933.073-1.4l1.895.08c.406.017.807.038,1.213.049l1.213.038,2.426.077c.405.01.807.028,1.213.035l1.213.024,2.426.045c.807.01,1.615.038,2.426.038l3.845.024c0,.28,0,.563,0,.842l.01,1.835.024,3.67c0,.612.021,1.223.031,1.835l.035,1.835.035,1.835c.007.612.035,1.223.052,1.835l.119,3.67.087,1.982a4.6,4.6,0,0,1,.678,1.37l.038-21.711v-.108h-.108l-6.439.014-3.1-4.3V63.188h-.318v7.183l-3.118,4.314-6.428.014h-.07v.07Z" transform="translate(369.409 862.069)" fill="#1b1c38"/><path d="M242.533,155.877a9.579,9.579,0,0,1,2.307,1.035v-1.035Z" transform="translate(338.277 797.627)" fill="#1b1c38"/><path d="M6.308,215.412l3.31-.066c2.108-.028,5.118-.1,8.728-.129l5.831-.059c2.069-.021,4.251-.049,6.509-.049,4.513-.014,9.33-.031,14.143-.045,4.813.014,9.63.031,14.143.045,2.258,0,4.439.028,6.509.049l5.831.059c3.611.031,6.621.1,8.728.129s3.31.07,3.31.07l-3.31.07c-2.108.028-5.118.1-8.728.129l-5.831.059c-2.069.021-4.251.045-6.509.049-4.513.014-9.33.031-14.143.045-4.813-.017-9.63-.031-14.143-.045-2.258,0-4.439-.028-6.509-.049s-4.023-.038-5.831-.059c-3.611-.031-6.621-.1-8.728-.129C7.514,215.437,6.308,215.412,6.308,215.412Z" transform="translate(502.51 756.479)" fill="#1b1c38"/><path d="M73.91,128.954c-.8.468-1.909,1.091-3.447,1.933-1.4.769-2.852,1.566-3.978,2.237-4.156,2.478-8.456,5.037-13.077,5.037a.234.234,0,0,1-.129-.038l-.909.021c-.332,0-.738.014-1.2.021l-.133,0c-.43.007-.909.017-1.423.021l-4.373.042c-.563,0-1.14,0-1.72.007-.748,0-1.507,0-2.269,0l-4.464-.014c-.968,0-1.909-.017-2.741-.024-.4,0-.79-.01-1.154-.014-.591,0-1.15-.014-1.559-.021-.461-.007-.867-.017-1.2-.021-.472-.01-.8-.031-.961-.042a.211.211,0,0,1-.084.018l-1.262.017a6.111,6.111,0,0,0,.031-.619c0-.108,0-.21-.007-.308,0-.052,0-.1,0-.161v-.01c0-.045-.007-.094-.01-.14q-.01-.163-.031-.325a7.3,7.3,0,0,0-.43-1.751,7.658,7.658,0,0,0-.776-1.493,7.434,7.434,0,0,0-2.087-2.052,7.343,7.343,0,0,0-2.062-.933,7.027,7.027,0,0,0-1.433-.245c-.122-.01-.22-.014-.3-.014-.031,0-.059,0-.087,0l-.136,0-.133,0h-.084q-.121,0-.294.01a7.053,7.053,0,0,0-1.447.231,7.286,7.286,0,0,0-2.076.916,7.4,7.4,0,0,0-2.9,3.558,7.3,7.3,0,0,0-.44,1.765c-.014.112-.024.224-.031.332l-.01.136v.01c0,.052,0,.108-.007.161,0,.1-.007.206-.007.315a6.893,6.893,0,0,0,.049.8l-4.618.059h0c-.014,0-.024,0-.038,0L6.9,138.088a.2.2,0,0,1-.164-.2v-1.3a11.146,11.146,0,0,1,.657-3.943,12.826,12.826,0,0,1,5.914-6.967,24.372,24.372,0,0,1,10.84-2.814c.045-.136.091-.276.133-.423.9-2.95,1.877-7.711,1.884-7.757a.2.2,0,0,1,.157-.157c.042-.007,4.125-.828,5.939-1.419a.2.2,0,0,1,.1-.007c.1.021,10.106,2.038,15.241,2.793a.2.2,0,0,1,.171.2v.58a.2.2,0,0,1-.2.2h-.1l1.052,4.181,24.738.951V121.8a.2.2,0,0,1,.2-.2H74.99a.2.2,0,0,1,.2.2v2.671a.2.2,0,0,1-.2.2h-.828v1.475l1.262,1.091c.217.017.294.126.315.217C75.815,127.71,75.469,128.038,73.91,128.954Z" transform="translate(502.22 827.364)" fill="#f58f81"/><path d="M147.6,142.215s.454-.024,1.136-.024c.339,0,.738,0,1.164.007.213,0,.433.007.654.014l.678.021.675.031c.224.007.444.024.654.035.423.024.821.052,1.161.08.678.056,1.129.112,1.129.112s-.454.024-1.136.024c-.339,0-.738,0-1.164-.007-.213,0-.433-.007-.654-.014l-.678-.021-.675-.031c-.224-.011-.444-.024-.654-.035-.423-.024-.821-.052-1.161-.08C148.047,142.271,147.6,142.215,147.6,142.215Z" transform="translate(404.281 807.144)" fill="#1b1c38"/><path d="M87.4,116.124c-5.138-.755-15.146-2.772-15.248-2.793l-.031-.007-.028.01c-1.818.594-5.908,1.416-5.949,1.423l-.077.017-.017.077c-.01.052-1.094,5.348-2.038,8.239l-.035.129c.049.573.535,1.255,2.566,1.255h.084c.147,0,.294,0,.447,0a.441.441,0,0,0,.426-.343l1.332-5.981a1.615,1.615,0,0,1,1.566-1.269h.014l16.6.07H87.5v-.807Z" transform="translate(462.415 827.212)" fill="#1b1c38"/><path d="M83.479,166.925a.2.2,0,0,1-.2.2h0a.19.19,0,0,1-.136-.056c-1.556-1.468-2.311-1.688-2.622-1.688a.341.341,0,0,0-.364.241,1.1,1.1,0,0,0,.052.717l-.014-.01a7.343,7.343,0,0,0-2.062-.933,7.028,7.028,0,0,0-1.433-.245c-.122-.01-.22-.014-.3-.014-.031,0-.059,0-.087,0l-.136,0-.133,0h-.084q-.121,0-.294.01a7.054,7.054,0,0,0-1.447.231,7.286,7.286,0,0,0-2.076.916,7.4,7.4,0,0,0-2.9,3.558,7.3,7.3,0,0,0-.44,1.765c-.014.112-.024.224-.031.332l-.01.136v.01c0,.052,0,.108-.007.161,0,.1-.007.206-.007.315a7,7,0,0,0,.07.975c.021.164.049.329.084.489.017.08.035.164.056.255l0,.01-41.314.066a6.223,6.223,0,0,0,.168-.832c.017-.115.031-.231.038-.346a6.113,6.113,0,0,0,.031-.619c0-.108,0-.21-.007-.308,0-.052,0-.1,0-.161v-.01c0-.045-.007-.094-.01-.14q-.01-.163-.031-.325a7.3,7.3,0,0,0-.43-1.751,7.659,7.659,0,0,0-.776-1.493,7.434,7.434,0,0,0-2.087-2.052,7.343,7.343,0,0,0-2.062-.933,7.028,7.028,0,0,0-1.433-.245c-.122-.01-.22-.014-.3-.014-.031,0-.059,0-.087,0l-.136,0-.133,0H20.29q-.121,0-.294.01a7.054,7.054,0,0,0-1.447.231,7.287,7.287,0,0,0-2.076.916,7.4,7.4,0,0,0-2.9,3.558,7.3,7.3,0,0,0-.44,1.765c-.014.112-.024.224-.031.332l-.01.136v.01c0,.052,0,.108-.007.161,0,.1-.007.206-.007.315a6.892,6.892,0,0,0,.049.8c.007.056.014.115.021.171.021.164.049.329.084.489.017.08.035.164.056.255l.017.056-4.838-.919-1.552-.294a.2.2,0,0,1-.164-.2c0-.01,0-.025,0-.038a.2.2,0,0,1,.234-.161,1.286,1.286,0,0,0,.231.021c1.014,0,2.045-1.227,3.352-2.779,2.139-2.541,5.072-6.019,9.945-6.019,7.7,0,8.659,7.246,8.777,8.795.171.01.468.028.863.035.332.007.734.014,1.2.021.405.007.965.017,1.552.024.364,0,.745.007,1.143.014.835.01,1.779.021,2.751.024l4.464.014c.759,0,1.521,0,2.265,0l2.132-.01.846-.007,3.111-.031c.524,0,1.007-.014,1.44-.021l.115,0c.465-.01.867-.017,1.2-.021l.178,0c.437-.01.727-.017.828-.017a.241.241,0,0,1,.122.038c4.481-.028,8.707-2.545,12.794-4.981A37.056,37.056,0,0,1,73.922,164a10.3,10.3,0,0,1,3-.486c2.034,0,4.52,1.244,6.488,3.247A.217.217,0,0,1,83.479,166.925Z" transform="translate(502.207 792.316)" fill="#1b1c38"/><path d="M259.043,187.862v.993a.242.242,0,0,1-.241.241h-.654c.007-.108.011-.213.011-.322s0-.21-.007-.308c0-.052,0-.1,0-.161v-.01c0-.045-.007-.094-.01-.14q-.01-.163-.031-.325a7.128,7.128,0,0,0-.192-1.007l.828.5A.625.625,0,0,1,259.043,187.862Z" transform="translate(327.583 776.112)" fill="#1b1c38"/><path d="M83,124.944l.1,6.753H75.954l.3-1.349.856-3.859a2.029,2.029,0,0,1,1.283-1.475,2.274,2.274,0,0,1,.654-.094Z" transform="translate(454.09 819.15)" fill="#e5d9d7"/><path d="M111.074,131.3l.842-.965a1.341,1.341,0,0,0,.3-1.154L111.375,125H100.34v6.757h9.721A1.343,1.343,0,0,0,111.074,131.3Z" transform="translate(437.136 819.094)" fill="#e5d9d7"/><path d="M116.115,156.295H102.209a.163.163,0,0,1-.161-.161V144.791a.163.163,0,0,1,.161-.161h10.252a1.107,1.107,0,0,0,.835-.381l.8-.912a1.131,1.131,0,0,0,.252-.951.161.161,0,0,1,.308-.091c2.241,5.7,1.629,13.769,1.622,13.849A.163.163,0,0,1,116.115,156.295Zm-13.745-.322h13.594c.07-1.073.405-7.743-1.363-12.878a1.452,1.452,0,0,1-.266.454l-.8.912a1.431,1.431,0,0,1-1.077.489H102.37Z" transform="translate(435.948 807.141)" fill="#1b1c38"/><path d="M176.73,141.138s.017.224.038.612.052.947.073,1.615c.014.336.024.7.035,1.08s.021.786.028,1.206.017.849.017,1.29,0,.884.007,1.328,0,.891-.007,1.328-.01.87-.017,1.29-.017.821-.028,1.206-.021.745-.035,1.08c-.024.668-.052,1.227-.077,1.615s-.038.612-.038.612-.017-.224-.038-.612-.052-.947-.077-1.615c-.014-.336-.025-.7-.035-1.08s-.021-.786-.028-1.206-.017-.849-.017-1.29,0-.884-.007-1.328,0-.891.007-1.328.01-.87.017-1.29.017-.821.028-1.206.021-.745.035-1.08c.024-.668.052-1.227.073-1.615S176.73,141.138,176.73,141.138Z" transform="translate(384.17 807.874)" fill="#1b1c38"/><path d="M230.956,141.551h-.248v2.73h.248a.886.886,0,0,0,.884-.888v-.958A.885.885,0,0,0,230.956,141.551Zm.64,1.846a.64.64,0,0,1-.64.64V141.8a.625.625,0,0,1,.451.189.64.64,0,0,1,.189.451Z" transform="translate(346.498 807.587)" fill="#1b1c38"/><path d="M232.162,143.005v.958a.64.64,0,0,1-.64.64v-2.237a.645.645,0,0,1,.64.64Z" transform="translate(345.932 807.021)" fill="#e8f3f5"/><path d="M51.489,154.937s.842-.052,2.108-.091c.318-.01.661-.021,1.021-.028s.745-.018,1.14-.021.8-.014,1.22-.014.835,0,1.258-.007.842,0,1.258,0,.825.01,1.22.014.78.014,1.14.021.706.017,1.021.028c1.265.038,2.108.091,2.108.091s-.842.056-2.108.094c-.318.01-.661.021-1.021.028s-.745.017-1.14.021-.8.014-1.22.014-.835,0-1.258.007-.842,0-1.258-.007-.825-.01-1.22-.014-.78-.014-1.14-.021-.706-.017-1.021-.028C52.331,154.993,51.489,154.937,51.489,154.937Z" transform="translate(471.099 798.393)" fill="#1b1c38"/><path d="M113.148,187.386l-1.461.049c-.93.028-2.262.063-3.856.091-.8.014-1.664.031-2.576.042s-1.877.028-2.877.031-2.027.021-3.076.021-2.111.007-3.174.007-2.129-.007-3.174-.007-2.076-.014-3.076-.021-1.961-.021-2.877-.031-1.779-.028-2.576-.042c-1.6-.028-2.926-.063-3.856-.091l-1.461-.049,1.461-.049c.93-.028,2.262-.063,3.856-.091.8-.014,1.664-.031,2.576-.042s1.877-.028,2.877-.031,2.027-.021,3.076-.021,2.111-.007,3.174-.007,2.129.007,3.174.007,2.076.014,3.076.021,1.961.021,2.877.031,1.779.028,2.576.042c1.6.028,2.926.063,3.856.091Z" transform="translate(451.897 775.889)" fill="#1b1c38"/><path d="M45.765,181.9a4.792,4.792,0,0,1-.28,1.622l-.178,0-8.659.122-.178,0a4.766,4.766,0,0,1-.329-1.748,4.812,4.812,0,1,1,9.623,0Z" transform="translate(481.769 782.883)" fill="#1b1c38"/><path d="M35.745,169.584a7.1,7.1,0,1,0,6.89,8.8,7.184,7.184,0,0,0,.206-1.7A7.1,7.1,0,0,0,35.745,169.584Zm4.244,8.984c-.017.042-.035.084-.056.126s-.042.08-.059.119c-.077.157-.171.308-.259.451a4.609,4.609,0,0,1-2.625,1.909,2.244,2.244,0,0,1-.276.066c-.087.018-.168.031-.245.049-.154.017-.287.035-.391.042-.2.007-.308.01-.325.014h0c-.021,0-.136-.007-.332-.017-.108-.007-.238-.031-.392-.049a5.112,5.112,0,0,1-.517-.122,4.473,4.473,0,0,1-1.293-.608,4.626,4.626,0,0,1-1.283-1.318,4.828,4.828,0,0,1-.461-.944,4.768,4.768,0,0,1-.245-1.091c-.01-.094-.017-.192-.021-.29,0-.049,0-.1,0-.147v-.073l0-.066a4.737,4.737,0,0,1,.056-.6c.017-.1.028-.2.052-.294s.052-.2.077-.3a2.872,2.872,0,0,1,.094-.294l.052-.147.028-.073.035-.07.136-.283c.045-.094.108-.182.161-.273l.084-.136c.031-.042.063-.084.094-.129.063-.084.126-.175.2-.255a5.11,5.11,0,0,1,.965-.874,4.955,4.955,0,0,1,1.192-.58l.322-.087.08-.021.084-.014.164-.028.168-.028a1.358,1.358,0,0,1,.168-.014l.329-.021a5.117,5.117,0,0,1,1.339.189,4.582,4.582,0,0,1,2.2,1.433c.07.084.133.171.2.259l.1.129.084.136c.056.094.119.182.164.276s.094.192.14.287a4.526,4.526,0,0,1,.353,1.2,4.471,4.471,0,0,1,.056.6,4.184,4.184,0,0,1-.021.594,4.577,4.577,0,0,1-.259,1.108C40.065,178.4,40.023,178.484,39.988,178.568Z" transform="translate(486.976 788.098)" fill="#1b1c38"/><path d="M53.248,181.642a.1.1,0,0,1-.052-.017.087.087,0,0,1-.014-.119l1.877-2.37a.085.085,0,1,1,.133.1l-1.877,2.37A.1.1,0,0,1,53.248,181.642Z" transform="translate(469.934 781.478)" fill="#fff"/><path d="M54.383,180.511a.085.085,0,0,1-.084-.084v-3.052a.084.084,0,0,1,.168,0v3.052A.085.085,0,0,1,54.383,180.511Z" transform="translate(469.145 782.739)" fill="#fff"/><path d="M51.735,180.895a.07.07,0,0,1-.045-.014.084.084,0,0,1-.024-.115l1.72-2.608a.083.083,0,1,1,.14.091l-1.72,2.608A.074.074,0,0,1,51.735,180.895Z" transform="translate(470.985 782.163)" fill="#fff"/><path d="M56.321,181.306a.085.085,0,0,1-.084-.084v-3.387a.084.084,0,1,1,.168,0v3.387A.081.081,0,0,1,56.321,181.306Z" transform="translate(467.798 782.42)" fill="#fff"/><path d="M52.421,180.291a.082.082,0,0,1-.08-.066l-.685-3.066a.084.084,0,0,1,.164-.038l.685,3.066a.084.084,0,0,1-.063.1A.052.052,0,0,1,52.421,180.291Z" transform="translate(470.984 782.903)" fill="#fff"/><path d="M50.183,180.228h-.014a.083.083,0,0,1-.07-.094l.44-2.992a.083.083,0,1,1,.164.024l-.44,2.992A.077.077,0,0,1,50.183,180.228Z" transform="translate(472.066 782.893)" fill="#fff"/><path d="M47.909,180.821a.086.086,0,0,1-.073-.042l-1.524-2.643a.085.085,0,0,1,.147-.084l1.524,2.643a.083.083,0,0,1-.031.115A.093.093,0,0,1,47.909,180.821Z" transform="translate(474.707 782.24)" fill="#fff"/><path d="M48.793,180.538h0a.082.082,0,0,1-.077-.087l.185-3.118a.08.08,0,0,1,.087-.077.082.082,0,0,1,.077.087l-.185,3.118A.087.087,0,0,1,48.793,180.538Z" transform="translate(473.029 782.765)" fill="#fff"/><path d="M49.981,180.549a.086.086,0,0,1-.073-.042l-1.692-2.933a.085.085,0,1,1,.147-.084l1.692,2.933a.083.083,0,0,1-.073.126Z" transform="translate(473.383 782.631)" fill="#fff"/><path d="M46.091,181.626a.094.094,0,0,1-.063-.028L43.9,179.288a.084.084,0,0,1,.122-.115l2.125,2.311a.087.087,0,0,1,0,.119A.07.07,0,0,1,46.091,181.626Z" transform="translate(476.388 781.449)" fill="#fff"/><path d="M44.993,182.187a.08.08,0,0,1-.077-.052l-1.115-2.81a.083.083,0,0,1,.154-.063l1.115,2.81a.084.084,0,0,1-.045.108A.1.1,0,0,1,44.993,182.187Z" transform="translate(476.448 781.405)" fill="#fff"/><path d="M42.46,184.345a.093.093,0,0,1-.042-.01l-2.643-1.528a.085.085,0,0,1,.084-.147l2.643,1.528a.089.089,0,0,1,.031.115A.1.1,0,0,1,42.46,184.345Z" transform="translate(479.271 779.013)" fill="#fff"/><path d="M43.432,183.433a.082.082,0,0,1-.073-.045l-1.4-2.793a.084.084,0,1,1,.15-.073l1.4,2.793a.083.083,0,0,1-.038.112A.075.075,0,0,1,43.432,183.433Z" transform="translate(477.73 780.526)" fill="#fff"/><path d="M44.123,183.064a.093.093,0,0,1-.042-.01l-2.929-1.692a.085.085,0,1,1,.084-.147l2.929,1.692a.089.089,0,0,1,.031.115A.086.086,0,0,1,44.123,183.064Z" transform="translate(478.314 780.018)" fill="#fff"/><path d="M41.285,185.935a.06.06,0,0,1-.024,0l-3-.94a.084.084,0,0,1,.049-.161l3,.94a.083.083,0,0,1,.056.1A.082.082,0,0,1,41.285,185.935Z" transform="translate(480.334 777.501)" fill="#fff"/><path d="M40.615,186.965a.1.1,0,0,1-.052-.017l-2.37-1.877a.085.085,0,0,1,.1-.133l2.37,1.877a.084.084,0,0,1-.052.15Z" transform="translate(480.365 777.435)" fill="#fff"/><path d="M39.5,190.111H36.444a.084.084,0,1,1,0-.168H39.5a.084.084,0,0,1,0,.168Z" transform="translate(481.617 773.943)" fill="#fff"/><path d="M39.887,188.839a.07.07,0,0,1-.045-.014l-2.6-1.72a.083.083,0,0,1,.091-.14l2.6,1.72a.084.084,0,0,1,.024.115A.085.085,0,0,1,39.887,188.839Z" transform="translate(481.033 776.023)" fill="#fff"/><path d="M40.3,188.173H36.914a.084.084,0,0,1,0-.168H40.3a.084.084,0,0,1,0,.168Z" transform="translate(481.29 775.291)" fill="#fff"/><path d="M36.217,191.193a.082.082,0,0,1-.08-.066.084.084,0,0,1,.063-.1l3.062-.685a.084.084,0,0,1,.038.164l-3.062.685A.044.044,0,0,1,36.217,191.193Z" transform="translate(481.774 773.669)" fill="#fff"/><path d="M39.2,193.31H39.19l-2.992-.44a.083.083,0,0,1,.024-.164l2.992.44a.083.083,0,0,1,.07.094A.077.077,0,0,1,39.2,193.31Z" transform="translate(481.779 772.023)" fill="#fff"/><path d="M37.163,194.629a.086.086,0,0,1-.073-.042.083.083,0,0,1,.031-.115l2.643-1.528a.085.085,0,0,1,.084.147L37.2,194.618A.093.093,0,0,1,37.163,194.629Z" transform="translate(481.118 771.865)" fill="#fff"/><path d="M39.512,195.3h0l-3.118-.185a.082.082,0,0,1,.01-.164l3.118.185a.082.082,0,0,1,.077.087A.084.084,0,0,1,39.512,195.3Z" transform="translate(481.65 770.459)" fill="#fff"/><path d="M36.6,192.338a.086.086,0,0,1-.073-.042.083.083,0,0,1,.031-.115l2.929-1.692a.085.085,0,0,1,.084.147l-2.929,1.692A.093.093,0,0,1,36.6,192.338Z" transform="translate(481.509 773.572)" fill="#fff"/><path d="M38.3,195.675a.094.094,0,0,1-.063-.028.087.087,0,0,1,0-.119l2.311-2.125a.084.084,0,1,1,.115.122l-2.311,2.125A.08.08,0,0,1,38.3,195.675Z" transform="translate(480.328 771.553)" fill="#fff"/><path d="M38.35,198.075a.08.08,0,0,1-.077-.052.084.084,0,0,1,.045-.108l2.81-1.115a.083.083,0,0,1,.063.154l-2.81,1.115A.1.1,0,0,1,38.35,198.075Z" transform="translate(480.292 769.18)" fill="#1b1c38"/><path d="M41.637,198.546l1.594-2.6-1.454,2.685a.08.08,0,0,1-.14-.077Z" transform="translate(477.955 769.772)" fill="#fff"/><path d="M39.625,199.278a.082.082,0,0,1-.073-.045.083.083,0,0,1,.038-.112l2.793-1.4a.084.084,0,1,1,.073.15l-2.793,1.4A.149.149,0,0,1,39.625,199.278Z" transform="translate(479.405 768.541)" fill="#1b1c38"/><path d="M40.345,196.624a.093.093,0,0,1-.042-.01.089.089,0,0,1-.031-.115l1.692-2.933a.085.085,0,0,1,.147.084l-1.692,2.933A.078.078,0,0,1,40.345,196.624Z" transform="translate(478.904 771.453)" fill="#fff"/><path d="M43.979,199.368a.06.06,0,0,1-.024,0,.083.083,0,0,1-.056-.1l.94-3a.084.084,0,1,1,.161.049l-.94,3A.085.085,0,0,1,43.979,199.368Z" transform="translate(476.379 769.59)" fill="#1b1c38"/><path d="M44.072,200.855a.1.1,0,0,1-.052-.017.087.087,0,0,1-.014-.119l1.877-2.37a.085.085,0,0,1,.133.1l-1.877,2.37A.086.086,0,0,1,44.072,200.855Z" transform="translate(476.314 768.121)" fill="#1b1c38"/><path d="M49.084,201.1a.085.085,0,0,1-.084-.084v-3.052a.084.084,0,0,1,.168,0v3.052A.083.083,0,0,1,49.084,201.1Z" transform="translate(472.829 768.425)" fill="#1b1c38"/><path d="M46.092,201.277a.07.07,0,0,1-.045-.014.084.084,0,0,1-.024-.115l1.72-2.608a.083.083,0,1,1,.14.091l-1.72,2.608A.074.074,0,0,1,46.092,201.277Z" transform="translate(474.909 767.992)" fill="#1b1c38"/><path d="M47.145,199.864a.085.085,0,0,1-.084-.084v-3.387a.084.084,0,1,1,.168,0v3.387A.083.083,0,0,1,47.145,199.864Z" transform="translate(474.177 769.517)" fill="#1b1c38"/><path d="M50.173,201.292a.082.082,0,0,1-.08-.066l-.685-3.066a.084.084,0,0,1,.164-.038l.685,3.066a.084.084,0,0,1-.063.1C50.187,201.289,50.18,201.292,50.173,201.292Z" transform="translate(472.547 768.302)" fill="#1b1c38"/><path d="M51.846,201.471h-.014a.083.083,0,0,1-.07-.094l.44-2.992a.083.083,0,1,1,.164.024l-.44,2.992A.085.085,0,0,1,51.846,201.471Z" transform="translate(470.91 768.124)" fill="#1b1c38"/><path d="M53.609,201.307a.086.086,0,0,1-.073-.042l-1.524-2.643a.085.085,0,1,1,.147-.084l1.524,2.643a.083.083,0,0,1-.031.115A.093.093,0,0,1,53.609,201.307Z" transform="translate(470.744 767.998)" fill="#1b1c38"/><path d="M54.092,201h0a.082.082,0,0,1-.077-.087L54.2,197.8a.082.082,0,1,1,.164.01l-.185,3.118A.084.084,0,0,1,54.092,201Z" transform="translate(469.345 768.537)" fill="#1b1c38"/><path d="M51.311,201.207a.086.086,0,0,1-.073-.042l-1.692-2.933a.085.085,0,1,1,.147-.084l1.692,2.933a.083.083,0,0,1-.031.115A.093.093,0,0,1,51.311,201.207Z" transform="translate(472.458 768.269)" fill="#1b1c38"/><path d="M54.648,200.93a.094.094,0,0,1-.063-.028l-2.125-2.311a.084.084,0,0,1,.122-.115l2.125,2.311a.087.087,0,0,1,0,.119A.074.074,0,0,1,54.648,200.93Z" transform="translate(470.439 768.028)" fill="#1b1c38"/><path d="M57.048,199.748a.08.08,0,0,1-.077-.052l-1.115-2.81a.083.083,0,0,1,.154-.063l1.115,2.81a.084.084,0,0,1-.045.108A.1.1,0,0,1,57.048,199.748Z" transform="translate(468.067 769.196)" fill="#1b1c38"/><path d="M57.624,199.222a.093.093,0,0,1-.042-.01l-2.643-1.528a.085.085,0,1,1,.084-.147l2.643,1.528a.089.089,0,0,1,.031.115A.079.079,0,0,1,57.624,199.222Z" transform="translate(468.729 768.67)" fill="#1b1c38"/><path d="M58.251,198.516a.082.082,0,0,1-.073-.045l-1.4-2.793a.084.084,0,1,1,.15-.073l1.4,2.793a.083.083,0,0,1-.038.112A.149.149,0,0,1,58.251,198.516Z" transform="translate(467.427 770.04)" fill="#1b1c38"/><path d="M55.6,200.292a.093.093,0,0,1-.042-.01l-2.929-1.692a.085.085,0,0,1,.084-.147l2.929,1.692a.089.089,0,0,1,.031.115A.086.086,0,0,1,55.6,200.292Z" transform="translate(470.332 768.04)" fill="#1b1c38"/><path d="M58.341,198.38a.06.06,0,0,1-.024,0l-3-.94a.084.084,0,0,1,.049-.161l3,.94a.083.083,0,0,1,.056.1A.086.086,0,0,1,58.341,198.38Z" transform="translate(468.476 768.848)" fill="#1b1c38"/><path d="M59.827,196.15a.1.1,0,0,1-.052-.018l-2.37-1.877a.087.087,0,0,1-.014-.119.084.084,0,0,1,.119-.014L59.88,196a.084.084,0,0,1-.052.15Z" transform="translate(467.008 771.05)" fill="#fff"/><path d="M60.073,195.41H57.021a.084.084,0,0,1,0-.168h3.052a.084.084,0,0,1,0,.168Z" transform="translate(467.311 770.259)" fill="#fff"/><path d="M60.258,194.482a.07.07,0,0,1-.045-.014l-2.6-1.72a.083.083,0,1,1,.091-.14l2.6,1.72a.084.084,0,0,1,.024.115A.085.085,0,0,1,60.258,194.482Z" transform="translate(466.871 772.099)" fill="#fff"/><path d="M58.845,197.349H55.461a.084.084,0,1,1,0-.168h3.384a.085.085,0,0,1,.084.084A.083.083,0,0,1,58.845,197.349Z" transform="translate(468.396 768.911)" fill="#fff"/><path d="M57.207,193.441a.082.082,0,0,1-.08-.066.084.084,0,0,1,.063-.1l3.062-.685a.084.084,0,1,1,.038.164l-3.062.685A.044.044,0,0,1,57.207,193.441Z" transform="translate(467.181 772.106)" fill="#fff"/><path d="M60.424,191.658H60.41l-2.992-.44a.083.083,0,1,1,.024-.164l2.992.44a.083.083,0,0,1,.07.094A.08.08,0,0,1,60.424,191.658Z" transform="translate(467.026 773.172)" fill="#fff"/><path d="M57.637,188.928a.086.086,0,0,1-.073-.042.083.083,0,0,1,.031-.115l2.643-1.528a.085.085,0,1,1,.084.147l-2.643,1.528A.093.093,0,0,1,57.637,188.928Z" transform="translate(466.884 775.829)" fill="#fff"/><path d="M59.974,190.005h0l-3.118-.185a.082.082,0,0,1,.01-.164l3.118.185a.082.082,0,0,1,.077.087A.084.084,0,0,1,59.974,190.005Z" transform="translate(467.423 774.143)" fill="#fff"/><path d="M57.258,191.008a.086.086,0,0,1-.073-.042.083.083,0,0,1,.031-.115l2.929-1.692a.085.085,0,1,1,.084.147L57.3,191A.093.093,0,0,1,57.258,191.008Z" transform="translate(467.147 774.497)" fill="#fff"/><path d="M57.592,187.119a.094.094,0,0,1-.063-.028.087.087,0,0,1,0-.119l2.311-2.125a.084.084,0,1,1,.115.122l-2.311,2.125A.07.07,0,0,1,57.592,187.119Z" transform="translate(466.915 777.502)" fill="#fff"/><path d="M55.9,186.021a.08.08,0,0,1-.077-.052.084.084,0,0,1,.045-.108l2.81-1.115a.083.083,0,1,1,.063.154l-2.81,1.115A.052.052,0,0,1,55.9,186.021Z" transform="translate(468.091 777.562)" fill="#fff"/><path d="M56.679,183.476a.093.093,0,0,1-.042-.01.089.089,0,0,1-.031-.115l1.524-2.643a.085.085,0,1,1,.147.084l-1.524,2.643A.086.086,0,0,1,56.679,183.476Z" transform="translate(467.549 780.393)" fill="#fff"/><path d="M54.7,184.459a.082.082,0,0,1-.073-.045.083.083,0,0,1,.038-.112l2.793-1.4a.084.084,0,1,1,.073.15l-2.793,1.4A.148.148,0,0,1,54.7,184.459Z" transform="translate(468.926 778.844)" fill="#fff"/><path d="M57.573,185.143a.093.093,0,0,1-.042-.011.089.089,0,0,1-.031-.115l1.692-2.933a.085.085,0,1,1,.147.084L57.647,185.1A.086.086,0,0,1,57.573,185.143Z" transform="translate(466.927 779.436)" fill="#fff"/><path d="M56.412,182.312a.059.059,0,0,1-.024,0,.083.083,0,0,1-.056-.1l.94-3a.084.084,0,0,1,.161.049l-.94,3A.086.086,0,0,1,56.412,182.312Z" transform="translate(467.735 781.448)" fill="#fff"/><path d="M47.8,186.938a1.809,1.809,0,1,0,1.807,1.811A1.81,1.81,0,0,0,47.8,186.938Zm.93,1.807a.928.928,0,1,1-1.856,0,.908.908,0,0,1,.164-.528l.759.535h.007l.8-.468A.9.9,0,0,1,48.732,188.745Z" transform="translate(474.919 776.032)" fill="#1b1c38"/><path d="M50.55,190.142h0a.975.975,0,0,0-1.622-.1l-.017.028v0a.961.961,0,0,0-.175.556.975.975,0,0,0,1.951,0A1.022,1.022,0,0,0,50.55,190.142Zm-.842-.4a.906.906,0,0,1,.752.409l-.343.2-.409.238-.713-.5A.9.9,0,0,1,49.708,189.74Z" transform="translate(473.013 774.142)" fill="#fff"/><path d="M41.8,198.662a.093.093,0,0,1-.042-.01.089.089,0,0,1-.031-.115l1.524-2.643a.085.085,0,1,1,.147.084l-1.524,2.643A.1.1,0,0,1,41.8,198.662Z" transform="translate(477.892 769.835)" fill="#1b1c38"/><path d="M159.9,169.825c11.35,0,21.2-15.957,29.856-6.047,0-.944-1.223-2.227-1.87-2.751-9.155-7.47-17.586,7.952-27.985,8.8Z" transform="translate(395.725 795.463)" fill="#e8f3f5"/><path d="M187.6,160.4a8.331,8.331,0,0,0-5.394-2.083,10.827,10.827,0,0,0-4.457,1.091c-.094.042-.189.087-.28.133s-.2.094-.29.14-.189.094-.28.143-.192.1-.29.154-.189.1-.28.154-.2.108-.29.164-.189.108-.28.161-.2.115-.29.175-.189.112-.28.171-.192.119-.29.182-.189.115-.28.178l-.29.185c-.094.063-.189.122-.28.185s-.2.129-.294.2-.189.126-.28.189-.192.129-.29.2-.178.119-.266.182c-.556.381-1.112.776-1.678,1.171-3.737,2.629-7.6,5.348-11.759,5.684a.2.2,0,0,0,.014.4c4.607,0,8.9-2.559,13.056-5.03,1.3-.776,2.573-1.535,3.824-2.192l.241-.126c.1-.049.2-.1.29-.147s.189-.094.28-.14.2-.1.29-.14.189-.091.28-.133a12.649,12.649,0,0,1,5.229-1.381,8.064,8.064,0,0,1,6.208,3.177.206.206,0,0,0,.224.056.2.2,0,0,0,.129-.189C189.539,162.228,188.137,160.844,187.6,160.4Zm-9.847.8c-.094.042-.189.087-.28.129s-.2.091-.29.14-.189.091-.28.136-.192.1-.29.147-.189.094-.28.143-.192.1-.29.15-.189.1-.28.15c-1.119.6-2.258,1.283-3.419,1.975a41.945,41.945,0,0,1-8.526,4.258,42.969,42.969,0,0,0,7.652-4.639c.7-.489,1.388-.975,2.073-1.44.07-.045.143-.094.213-.143.1-.066.2-.129.294-.2l.28-.185c.1-.066.2-.129.29-.189s.189-.122.28-.182.192-.122.29-.182.189-.115.28-.175l.29-.175.28-.164c.1-.059.2-.112.29-.168s.189-.1.28-.157.2-.1.29-.157.189-.1.28-.147.2-.1.29-.147.189-.091.28-.133a10.553,10.553,0,0,1,4.457-1.136,7.959,7.959,0,0,1,5.138,1.992,6.742,6.742,0,0,1,1.573,1.846,8.127,8.127,0,0,0-5.939-2.7A12.914,12.914,0,0,0,177.748,161.2Z" transform="translate(396.148 795.929)" fill="#1b1c38"/><path d="M189.156,154.32v5.041a.14.14,0,1,1-.28,0V154.32a.14.14,0,0,1,.28,0Z" transform="translate(375.581 798.807)" fill="#1b1c38"/><path d="M191.037,154.32v5.041a.14.14,0,1,1-.28,0V154.32a.14.14,0,0,1,.28,0Z" transform="translate(374.273 798.807)" fill="#1b1c38"/><path d="M200.42,154.32v5.041a.14.14,0,1,1-.28,0V154.32a.14.14,0,0,1,.14-.14A.138.138,0,0,1,200.42,154.32Z" transform="translate(367.75 798.807)" fill="#1b1c38"/><path d="M211.695,154.32v3.44c-.094.056-.189.112-.28.171V154.32a.14.14,0,1,1,.28,0Z" transform="translate(359.911 798.807)" fill="#1b1c38"/><path d="M209.814,154.32v3.789c-.094.056-.189.115-.28.178V154.32a.14.14,0,0,1,.28,0Z" transform="translate(361.219 798.807)" fill="#1b1c38"/><path d="M215.445,154.32v2.786c-.094.049-.189.1-.28.154v-2.94a.14.14,0,0,1,.28,0Z" transform="translate(357.304 798.807)" fill="#1b1c38"/><path d="M217.326,154.32v2.489c-.094.045-.189.094-.28.143V154.32a.14.14,0,0,1,.28,0Z" transform="translate(355.996 798.807)" fill="#1b1c38"/><path d="M185.405,154.32v5.041a.14.14,0,1,1-.28,0V154.32a.14.14,0,0,1,.28,0Z" transform="translate(378.189 798.807)" fill="#1b1c38"/><path d="M196.669,154.32v5.041a.14.14,0,1,1-.28,0V154.32a.14.14,0,1,1,.28,0Z" transform="translate(370.358 798.807)" fill="#1b1c38"/><path d="M198.55,154.32v5.041a.14.14,0,1,1-.28,0V154.32a.14.14,0,0,1,.28,0Z" transform="translate(369.05 798.807)" fill="#1b1c38"/><path d="M194.788,154.32v5.041a.14.14,0,1,1-.28,0V154.32a.14.14,0,0,1,.28,0Z" transform="translate(371.666 798.807)" fill="#1b1c38"/><path d="M213.576,154.32v3.1c-.094.052-.189.108-.28.161V154.32a.14.14,0,1,1,.28,0Z" transform="translate(358.604 798.807)" fill="#1b1c38"/><path d="M206.063,154.32v4.534c-.094.063-.189.126-.28.189V154.32a.14.14,0,0,1,.28,0Z" transform="translate(363.827 798.807)" fill="#1b1c38"/><path d="M187.275,154.32v5.041a.14.14,0,1,1-.28,0V154.32a.14.14,0,0,1,.28,0Z" transform="translate(376.889 798.807)" fill="#1b1c38"/><path d="M183.524,154.32v5.041a.14.14,0,1,1-.28,0V154.32a.14.14,0,0,1,.28,0Z" transform="translate(379.497 798.807)" fill="#1b1c38"/><path d="M207.944,154.32v4.153c-.094.063-.189.122-.28.185V154.32a.14.14,0,0,1,.14-.14A.143.143,0,0,1,207.944,154.32Z" transform="translate(362.519 798.807)" fill="#1b1c38"/><path d="M202.3,154.32v5.041a.14.14,0,1,1-.28,0V154.32a.14.14,0,0,1,.28,0Z" transform="translate(366.443 798.807)" fill="#1b1c38"/><path d="M219.208,154.32v2.216c-.094.042-.189.087-.28.133V154.32a.14.14,0,0,1,.28,0Z" transform="translate(354.688 798.807)" fill="#1b1c38"/><path d="M204.182,154.327v4.922c-.087.059-.178.119-.266.182a.115.115,0,0,1-.014-.059v-5.041a.14.14,0,0,1,.14-.14A.135.135,0,0,1,204.182,154.327Z" transform="translate(365.135 798.8)" fill="#1b1c38"/><path d="M192.918,154.32v5.041a.14.14,0,1,1-.28,0V154.32a.14.14,0,0,1,.14-.14A.143.143,0,0,1,192.918,154.32Z" transform="translate(372.966 798.807)" fill="#1b1c38"/><path d="M226.795,140.955h-1.531a.2.2,0,0,0-.2.2v2.671a.2.2,0,0,0,.2.2h1.531a.2.2,0,0,0,.2-.2v-2.671A.2.2,0,0,0,226.795,140.955Z" transform="translate(350.422 808.002)" fill="#1b1c38"/><path d="M218.393,169.584a7.094,7.094,0,0,0-7.092,7.1,6.964,6.964,0,0,0,.217,1.741,7.1,7.1,0,0,0,13.769-.038,7.183,7.183,0,0,0,.206-1.7A7.1,7.1,0,0,0,218.393,169.584Zm0,11.825a4.724,4.724,0,1,1,4.411-3.02A4.731,4.731,0,0,1,218.393,181.409Z" transform="translate(359.991 788.098)" fill="#1b1c38"/><path d="M223.592,186.851l-.332-.01c-.108-.007-.245-.024-.405-.042a5.413,5.413,0,0,1-.538-.115,4.848,4.848,0,0,1-1.353-.6,4.787,4.787,0,0,1-1.367-1.346,5.27,5.27,0,0,1-.507-.979,4.7,4.7,0,0,1-.276-1.147,4.507,4.507,0,0,1-.028-.619,4.773,4.773,0,0,1,.052-.622,4.435,4.435,0,0,1,.364-1.248c.049-.1.1-.2.147-.3s.115-.192.171-.287l.087-.143c.031-.045.066-.091.1-.136.07-.087.133-.182.21-.269a5.189,5.189,0,0,1,1.028-.905,5.03,5.03,0,0,1,1.262-.577,5,5,0,0,1,2.758.01,5.049,5.049,0,0,1,1.251.584,4.941,4.941,0,0,1,1.017.905c.073.084.136.178.206.266.035.045.066.087.1.136l.087.143c.056.094.119.189.171.287s.1.2.143.3a4.673,4.673,0,0,1,.36,1.237,4.732,4.732,0,0,1,.056.626,3.941,3.941,0,0,1-.024.612,4.764,4.764,0,0,1-.269,1.14,5.019,5.019,0,0,1-.5.975,4.806,4.806,0,0,1-1.356,1.346,4.714,4.714,0,0,1-1.346.612,2.378,2.378,0,0,1-.283.07l-.252.049c-.157.017-.294.038-.4.045l-.336.007Zm0-.129s.115,0,.329-.014c.108-.007.238-.028.392-.042.077-.014.157-.031.245-.049a2.417,2.417,0,0,0,.276-.066,4.6,4.6,0,0,0,1.311-.594,4.648,4.648,0,0,0,1.314-1.314,4.126,4.126,0,0,0,.259-.454,1.25,1.25,0,0,0,.059-.119c.021-.042.035-.084.056-.126.035-.084.077-.175.1-.255a4.747,4.747,0,0,0,.259-1.108,4.185,4.185,0,0,0,.021-.594,4.47,4.47,0,0,0-.056-.6,4.565,4.565,0,0,0-.353-1.2c-.045-.094-.094-.192-.14-.287s-.112-.185-.164-.276l-.084-.136c-.031-.045-.066-.087-.1-.129-.066-.084-.129-.175-.2-.259a4.6,4.6,0,0,0-2.2-1.43,5.118,5.118,0,0,0-1.339-.189l-.329.021a1.364,1.364,0,0,0-.168.014l-.164.028-.164.028-.084.014-.08.021-.325.087a4.88,4.88,0,0,0-1.192.577,5.109,5.109,0,0,0-.965.874c-.07.08-.129.171-.2.255-.031.042-.063.084-.094.129l-.084.136c-.052.091-.112.178-.161.273l-.136.283-.035.07-.028.073-.052.147a1.79,1.79,0,0,0-.094.294c-.024.1-.049.2-.077.3s-.035.2-.052.294a4.8,4.8,0,0,0-.059.6l0,.066v.073c0,.049,0,.1,0,.147,0,.1.011.192.021.29a4.767,4.767,0,0,0,.245,1.091,5.143,5.143,0,0,0,.461.944,4.642,4.642,0,0,0,1.283,1.321,4.516,4.516,0,0,0,1.293.608,5.118,5.118,0,0,0,.517.122c.154.017.283.038.388.049.231.007.346.014.343.014Z" transform="translate(354.788 782.723)" fill="#fff"/><path d="M223.592,186.7a4.813,4.813,0,1,1,4.813-4.813A4.82,4.82,0,0,1,223.592,186.7Zm0-9.459a4.647,4.647,0,1,0,4.646,4.649A4.651,4.651,0,0,0,223.592,177.242Z" transform="translate(354.792 782.89)" fill="#fff"/><path d="M223.72,186.772a4.757,4.757,0,1,1,4.757-4.757A4.765,4.765,0,0,1,223.72,186.772Zm0-9.462a4.705,4.705,0,1,0,4.7,4.705A4.708,4.708,0,0,0,223.72,177.31Z" transform="translate(354.664 782.763)" fill="#fff"/><path d="M220.166,185.115a4.73,4.73,0,1,1,7.246-6.082Z" transform="translate(354.597 782.703)" fill="#1b1c38"/><path d="M235.9,181.642a.1.1,0,0,1-.052-.017.087.087,0,0,1-.014-.119l1.877-2.37a.085.085,0,1,1,.133.1l-1.877,2.37A.1.1,0,0,1,235.9,181.642Z" transform="translate(342.949 781.478)" fill="#fff"/><path d="M237.031,180.511a.085.085,0,0,1-.084-.084v-3.052a.084.084,0,0,1,.168,0v3.052A.085.085,0,0,1,237.031,180.511Z" transform="translate(342.16 782.739)" fill="#fff"/><path d="M234.383,180.895a.07.07,0,0,1-.045-.014.084.084,0,0,1-.024-.115l1.72-2.608a.083.083,0,1,1,.14.091l-1.72,2.608A.077.077,0,0,1,234.383,180.895Z" transform="translate(344.001 782.163)" fill="#fff"/><path d="M238.97,181.306a.085.085,0,0,1-.084-.084v-3.387a.084.084,0,1,1,.168,0v3.387A.083.083,0,0,1,238.97,181.306Z" transform="translate(340.813 782.42)" fill="#fff"/><path d="M235.07,180.291a.082.082,0,0,1-.08-.066l-.685-3.066a.084.084,0,0,1,.164-.038l.685,3.066a.084.084,0,0,1-.063.1A.061.061,0,0,1,235.07,180.291Z" transform="translate(344 782.903)" fill="#fff"/><path d="M232.831,180.228h-.014a.083.083,0,0,1-.07-.094l.44-2.992a.083.083,0,1,1,.164.024l-.44,2.992A.077.077,0,0,1,232.831,180.228Z" transform="translate(345.081 782.893)" fill="#fff"/><path d="M230.557,180.821a.086.086,0,0,1-.073-.042l-1.524-2.643a.085.085,0,1,1,.147-.084l1.524,2.643a.083.083,0,0,1-.031.115A.093.093,0,0,1,230.557,180.821Z" transform="translate(347.722 782.24)" fill="#fff"/><path d="M231.43,180.538h0a.082.082,0,0,1-.077-.087l.185-3.118a.08.08,0,0,1,.087-.077.082.082,0,0,1,.077.087l-.185,3.118A.082.082,0,0,1,231.43,180.538Z" transform="translate(346.052 782.765)" fill="#fff"/><path d="M232.629,180.549a.086.086,0,0,1-.073-.042l-1.692-2.933a.085.085,0,0,1,.147-.084l1.692,2.933a.083.083,0,0,1-.031.115A.093.093,0,0,1,232.629,180.549Z" transform="translate(346.398 782.631)" fill="#fff"/><path d="M228.74,181.626a.094.094,0,0,1-.063-.028l-2.125-2.311a.084.084,0,0,1,.122-.115l2.125,2.311a.087.087,0,0,1,0,.119A.07.07,0,0,1,228.74,181.626Z" transform="translate(349.403 781.449)" fill="#fff"/><path d="M227.642,182.187a.08.08,0,0,1-.077-.052l-1.115-2.81a.083.083,0,0,1,.154-.063l1.115,2.81a.084.084,0,0,1-.045.108A.1.1,0,0,1,227.642,182.187Z" transform="translate(349.463 781.405)" fill="#fff"/><path d="M225.109,184.345a.093.093,0,0,1-.042-.01l-2.643-1.528a.085.085,0,0,1,.084-.147l2.643,1.528a.089.089,0,0,1,.031.115A.1.1,0,0,1,225.109,184.345Z" transform="translate(352.286 779.013)" fill="#fff"/><path d="M226.08,183.433a.082.082,0,0,1-.073-.045l-1.4-2.793a.084.084,0,1,1,.15-.073l1.4,2.793a.083.083,0,0,1-.038.112A.082.082,0,0,1,226.08,183.433Z" transform="translate(350.745 780.526)" fill="#fff"/><path d="M226.772,183.064a.093.093,0,0,1-.042-.01l-2.929-1.692a.085.085,0,0,1,.084-.147l2.929,1.692a.089.089,0,0,1,.031.115A.086.086,0,0,1,226.772,183.064Z" transform="translate(351.329 780.018)" fill="#fff"/><path d="M223.933,185.935a.06.06,0,0,1-.024,0l-3-.94a.084.084,0,1,1,.049-.161l3,.94a.083.083,0,0,1,.056.1A.082.082,0,0,1,223.933,185.935Z" transform="translate(353.349 777.501)" fill="#fff"/><path d="M223.263,186.965a.1.1,0,0,1-.052-.017l-2.37-1.877a.085.085,0,0,1,.1-.133l2.37,1.877a.084.084,0,0,1-.052.15Z" transform="translate(353.38 777.435)" fill="#fff"/><path d="M222.132,190.111h-3.052a.084.084,0,0,1,0-.168h3.052a.085.085,0,0,1,.084.084A.083.083,0,0,1,222.132,190.111Z" transform="translate(354.64 773.943)" fill="#fff"/><path d="M222.535,188.839a.07.07,0,0,1-.045-.014l-2.6-1.72a.083.083,0,1,1,.091-.14l2.6,1.72a.084.084,0,0,1,.024.115A.085.085,0,0,1,222.535,188.839Z" transform="translate(354.048 776.023)" fill="#fff"/><path d="M222.935,188.173h-3.384a.084.084,0,1,1,0-.168h3.384a.085.085,0,0,1,.084.084A.083.083,0,0,1,222.935,188.173Z" transform="translate(354.313 775.291)" fill="#fff"/><path d="M218.866,191.193a.082.082,0,0,1-.08-.066.084.084,0,0,1,.063-.1l3.062-.685a.084.084,0,0,1,.038.164l-3.062.685A.044.044,0,0,1,218.866,191.193Z" transform="translate(354.789 773.669)" fill="#fff"/><path d="M221.853,193.31h-.014l-2.992-.44a.083.083,0,0,1,.024-.164l2.992.44a.083.083,0,0,1,.07.094A.08.08,0,0,1,221.853,193.31Z" transform="translate(354.794 772.023)" fill="#fff"/><path d="M219.811,194.629a.086.086,0,0,1-.073-.042.083.083,0,0,1,.031-.115l2.643-1.528a.085.085,0,0,1,.084.147l-2.643,1.528A.093.093,0,0,1,219.811,194.629Z" transform="translate(354.134 771.865)" fill="#fff"/><path d="M222.16,195.3h0l-3.118-.185a.082.082,0,1,1,.01-.164l3.118.185a.082.082,0,0,1,.077.087A.087.087,0,0,1,222.16,195.3Z" transform="translate(354.665 770.459)" fill="#fff"/><path d="M219.238,192.338a.086.086,0,0,1-.073-.042.083.083,0,0,1,.031-.115l2.929-1.692a.085.085,0,0,1,.084.147l-2.929,1.692A.075.075,0,0,1,219.238,192.338Z" transform="translate(354.532 773.572)" fill="#fff"/><path d="M220.937,195.675a.094.094,0,0,1-.063-.028.087.087,0,0,1,0-.119l2.311-2.125a.084.084,0,1,1,.115.122l-2.311,2.125A.07.07,0,0,1,220.937,195.675Z" transform="translate(353.351 771.553)" fill="#fff"/><path d="M221,198.075a.08.08,0,0,1-.077-.052.084.084,0,0,1,.045-.108l2.81-1.115a.083.083,0,0,1,.063.154l-2.81,1.115A.1.1,0,0,1,221,198.075Z" transform="translate(353.307 769.18)" fill="#fff"/><path d="M224.439,198.662a.093.093,0,0,1-.042-.01.089.089,0,0,1-.031-.115l1.524-2.643a.085.085,0,0,1,.147.084l-1.524,2.643A.085.085,0,0,1,224.439,198.662Z" transform="translate(350.915 769.835)" fill="#1b1c38"/><path d="M222.273,199.278a.082.082,0,0,1-.073-.045.083.083,0,0,1,.038-.112l2.793-1.4a.084.084,0,1,1,.073.15l-2.793,1.4A.181.181,0,0,1,222.273,199.278Z" transform="translate(352.42 768.541)" fill="#1b1c38"/><path d="M222.994,196.624a.093.093,0,0,1-.042-.01.089.089,0,0,1-.031-.115l1.692-2.933a.085.085,0,0,1,.147.084l-1.692,2.933A.082.082,0,0,1,222.994,196.624Z" transform="translate(351.919 771.453)" fill="#fff"/><path d="M226.627,199.368a.06.06,0,0,1-.024,0,.083.083,0,0,1-.056-.1l.94-3a.084.084,0,1,1,.161.049l-.94,3A.085.085,0,0,1,226.627,199.368Z" transform="translate(349.394 769.59)" fill="#1b1c38"/><path d="M226.72,200.855a.1.1,0,0,1-.052-.017.087.087,0,0,1-.014-.119l1.877-2.37a.085.085,0,0,1,.133.1l-1.877,2.37A.086.086,0,0,1,226.72,200.855Z" transform="translate(349.329 768.121)" fill="#1b1c38"/><path d="M231.732,201.1a.085.085,0,0,1-.084-.084v-3.052a.084.084,0,0,1,.168,0v3.052A.085.085,0,0,1,231.732,201.1Z" transform="translate(345.845 768.425)" fill="#1b1c38"/><path d="M228.74,201.277a.07.07,0,0,1-.045-.014.084.084,0,0,1-.024-.115l1.72-2.608a.083.083,0,0,1,.14.091l-1.72,2.608A.074.074,0,0,1,228.74,201.277Z" transform="translate(347.924 767.992)" fill="#1b1c38"/><path d="M229.794,199.864a.085.085,0,0,1-.084-.084v-3.387a.084.084,0,1,1,.168,0v3.387A.083.083,0,0,1,229.794,199.864Z" transform="translate(347.192 769.517)" fill="#1b1c38"/><path d="M232.822,201.292a.082.082,0,0,1-.08-.066l-.685-3.066a.084.084,0,0,1,.164-.038l.685,3.066a.084.084,0,0,1-.063.1C232.835,201.289,232.829,201.292,232.822,201.292Z" transform="translate(345.562 768.302)" fill="#1b1c38"/><path d="M234.483,201.471h-.014a.083.083,0,0,1-.07-.094l.44-2.992a.083.083,0,0,1,.164.024l-.44,2.992A.08.08,0,0,1,234.483,201.471Z" transform="translate(343.933 768.124)" fill="#1b1c38"/><path d="M236.258,201.307a.086.086,0,0,1-.073-.042l-1.524-2.643a.085.085,0,1,1,.147-.084l1.524,2.643a.083.083,0,0,1-.031.115A.093.093,0,0,1,236.258,201.307Z" transform="translate(343.759 767.998)" fill="#1b1c38"/><path d="M236.74,201h0a.082.082,0,0,1-.077-.087l.185-3.118a.082.082,0,1,1,.164.01l-.185,3.118A.084.084,0,0,1,236.74,201Z" transform="translate(342.36 768.537)" fill="#1b1c38"/><path d="M233.959,201.207a.086.086,0,0,1-.073-.042l-1.692-2.933a.085.085,0,1,1,.147-.084l1.692,2.933a.083.083,0,0,1-.031.115A.093.093,0,0,1,233.959,201.207Z" transform="translate(345.473 768.269)" fill="#1b1c38"/><path d="M237.3,200.93a.094.094,0,0,1-.063-.028l-2.125-2.311a.084.084,0,0,1,.122-.115l2.125,2.311a.087.087,0,0,1,0,.119A.08.08,0,0,1,237.3,200.93Z" transform="translate(343.454 768.028)" fill="#1b1c38"/><path d="M239.7,199.748a.08.08,0,0,1-.077-.052l-1.115-2.81a.083.083,0,0,1,.154-.063l1.115,2.81a.084.084,0,0,1-.045.108A.1.1,0,0,1,239.7,199.748Z" transform="translate(341.082 769.196)" fill="#1b1c38"/><path d="M240.272,199.222a.093.093,0,0,1-.042-.01l-2.643-1.528a.085.085,0,1,1,.084-.147l2.643,1.528a.089.089,0,0,1,.031.115A.079.079,0,0,1,240.272,199.222Z" transform="translate(341.744 768.67)" fill="#1b1c38"/><path d="M240.9,198.516a.082.082,0,0,1-.073-.045l-1.4-2.793a.084.084,0,1,1,.15-.073l1.4,2.793a.083.083,0,0,1-.038.112A.15.15,0,0,1,240.9,198.516Z" transform="translate(340.442 770.04)" fill="#1b1c38"/><path d="M238.253,200.292a.093.093,0,0,1-.042-.01l-2.929-1.692a.085.085,0,0,1,.084-.147l2.929,1.692a.089.089,0,0,1,.031.115A.086.086,0,0,1,238.253,200.292Z" transform="translate(343.347 768.04)" fill="#1b1c38"/><path d="M240.989,198.38a.06.06,0,0,1-.024,0l-3-.94a.084.084,0,1,1,.049-.161l3,.94a.083.083,0,0,1,.056.1A.086.086,0,0,1,240.989,198.38Z" transform="translate(341.491 768.848)" fill="#1b1c38"/><path d="M242.476,196.152a.1.1,0,0,1-.052-.017l-2.37-1.877a.085.085,0,0,1,.1-.133l2.37,1.877a.084.084,0,0,1-.052.15Z" transform="translate(340.023 771.048)" fill="#1b1c38"/><path d="M242.709,195.41h-3.052a.084.084,0,1,1,0-.168h3.052a.085.085,0,0,1,.084.084A.083.083,0,0,1,242.709,195.41Z" transform="translate(340.334 770.259)" fill="#1b1c38"/><path d="M242.906,194.482a.07.07,0,0,1-.045-.014l-2.6-1.72a.083.083,0,1,1,.091-.14l2.6,1.72a.084.084,0,0,1,.024.115A.085.085,0,0,1,242.906,194.482Z" transform="translate(339.886 772.099)" fill="#1b1c38"/><path d="M241.493,197.349h-3.384a.084.084,0,0,1,0-.168h3.384a.085.085,0,0,1,.084.084A.083.083,0,0,1,241.493,197.349Z" transform="translate(341.411 768.911)" fill="#1b1c38"/><path d="M239.856,193.441a.082.082,0,0,1-.08-.066.084.084,0,0,1,.063-.1l3.062-.685a.084.084,0,1,1,.038.164l-3.062.685A.052.052,0,0,1,239.856,193.441Z" transform="translate(340.196 772.106)" fill="#1b1c38"/><path d="M243.072,191.658h-.014l-2.992-.44a.083.083,0,1,1,.024-.164l2.992.44a.083.083,0,0,1,.07.094A.08.08,0,0,1,243.072,191.658Z" transform="translate(340.041 773.172)" fill="#1b1c38"/><path d="M240.285,188.928a.086.086,0,0,1-.073-.042.083.083,0,0,1,.031-.115l2.643-1.528a.085.085,0,0,1,.084.147l-2.643,1.528A.093.093,0,0,1,240.285,188.928Z" transform="translate(339.899 775.829)" fill="#1b1c38"/><path d="M242.631,190.005h0l-3.115-.185a.082.082,0,1,1,.01-.164l3.115.185a.082.082,0,0,1,.077.087A.087.087,0,0,1,242.631,190.005Z" transform="translate(340.43 774.143)" fill="#1b1c38"/><path d="M239.9,191.008a.086.086,0,0,1-.073-.042.083.083,0,0,1,.031-.115l2.929-1.692a.085.085,0,1,1,.084.147L239.937,191A.083.083,0,0,1,239.9,191.008Z" transform="translate(340.17 774.497)" fill="#1b1c38"/><path d="M240.241,187.119a.094.094,0,0,1-.063-.028.087.087,0,0,1,0-.119l2.311-2.125a.084.084,0,0,1,.115.122l-2.311,2.125A.074.074,0,0,1,240.241,187.119Z" transform="translate(339.93 777.502)" fill="#1b1c38"/><path d="M238.547,186.021a.08.08,0,0,1-.077-.052.084.084,0,0,1,.045-.108l2.81-1.115a.083.083,0,1,1,.063.154l-2.81,1.115A.052.052,0,0,1,238.547,186.021Z" transform="translate(341.106 777.562)" fill="#1b1c38"/><path d="M239.315,183.476a.093.093,0,0,1-.042-.01.089.089,0,0,1-.031-.115l1.524-2.643a.085.085,0,0,1,.147.084l-1.524,2.643A.079.079,0,0,1,239.315,183.476Z" transform="translate(340.572 780.393)" fill="#fff"/><path d="M237.344,184.459a.082.082,0,0,1-.073-.045.083.083,0,0,1,.038-.112l2.793-1.4a.084.084,0,1,1,.073.15l-2.793,1.4A.179.179,0,0,1,237.344,184.459Z" transform="translate(341.941 778.844)" fill="#fff"/><path d="M240.221,185.143a.093.093,0,0,1-.042-.011.089.089,0,0,1-.031-.115l1.692-2.933a.085.085,0,1,1,.147.084l-1.692,2.933A.086.086,0,0,1,240.221,185.143Z" transform="translate(339.942 779.436)" fill="#1b1c38"/><path d="M239.06,182.312a.059.059,0,0,1-.024,0,.083.083,0,0,1-.056-.1l.94-3a.084.084,0,0,1,.161.049l-.94,3A.086.086,0,0,1,239.06,182.312Z" transform="translate(340.75 781.448)" fill="#fff"/><path d="M230.45,186.938a1.809,1.809,0,1,0,1.807,1.811A1.81,1.81,0,0,0,230.45,186.938Zm.93,1.807a.928.928,0,1,1-1.856,0,.908.908,0,0,1,.164-.528l.759.535h.007l.8-.468A.933.933,0,0,1,231.38,188.745Z" transform="translate(347.934 776.032)" fill="#1b1c38"/><path d="M233.194,190.154h0l0,0a.977.977,0,0,0-1.622-.094l-.017.028a.975.975,0,1,0,1.772.559A.994.994,0,0,0,233.194,190.154Zm-1.556-.059a.9.9,0,0,1,1.461.059l-.748.437Z" transform="translate(346.036 774.134)" fill="#fff"/><path d="M240.641,203.647l.164-.066c.052-.017.115-.045.185-.077s.15-.063.238-.1.178-.087.276-.136.2-.108.3-.168.206-.129.311-.206.206-.154.308-.234a3.523,3.523,0,0,0,.294-.266c.045-.049.094-.091.14-.14l.133-.143c.084-.1.164-.2.238-.29s.143-.189.2-.283.115-.175.161-.255.087-.147.115-.206c.063-.119.1-.185.1-.185s-.01.084-.042.231c-.014.073-.038.161-.066.255-.014.049-.031.1-.049.154s-.042.1-.066.161c-.045.112-.1.227-.168.346a3.9,3.9,0,0,1-.227.346,2.682,2.682,0,0,1-.276.322,3.081,3.081,0,0,1-.654.514,3.208,3.208,0,0,1-.343.178c-.115.045-.224.091-.332.122-.052.014-.1.031-.157.045l-.147.031a1.018,1.018,0,0,1-.136.024c-.045.007-.084.01-.126.014a1.506,1.506,0,0,1-.2.014A1.713,1.713,0,0,1,240.641,203.647Z" transform="translate(339.593 766.336)" fill="#fff"/><path d="M44.623,145.741a63.955,63.955,0,0,0-14.87,1.549A22.5,22.5,0,0,1,40.306,144.5c.059-.178.119-.364.178-.559Z" transform="translate(486.211 805.929)" fill="#1b1c38"/><path d="M112.229,138.778l-.842.965a1.146,1.146,0,0,1-.863.391H101v-2.793H112.4l.091.458A1.159,1.159,0,0,1,112.229,138.778Z" transform="translate(436.673 810.514)" fill="#736d6c"/><path d="M82.3,127.279l1.475-2.727a.2.2,0,0,0-.353-.192l-1.461,2.7-.154.154H81.32l-.07-.15-.364.168,1.632,3.527a.454.454,0,0,0-.343.391H82.7l.077.164.357-.164h.3c0-.21-.21-.384-.489-.43l-1.29-2.786.612-.615A.064.064,0,0,0,82.3,127.279Z" transform="translate(450.661 819.612)" fill="#e8f3f5"/><path d="M26.11,146.919l-1.007.126c-.161.021-.336.042-.528.07s-.4.059-.619.094-.454.077-.7.119-.507.091-.776.14c-.538.1-1.122.231-1.73.374s-1.244.332-1.895.538-1.3.465-1.958.748c-.161.073-.325.143-.486.224l-.482.241-.472.262-.465.283A11.53,11.53,0,0,0,11.9,152.96a12.479,12.479,0,0,0-1.038,1.646,16,16,0,0,0-.724,1.6c-.045.129-.1.259-.136.381s-.084.241-.119.36c-.077.238-.14.465-.2.682-.108.43-.178.814-.227,1.133s-.073.57-.084.741-.014.266-.014.266a7.08,7.08,0,0,1,.035-1.01,10.749,10.749,0,0,1,.168-1.15,11.485,11.485,0,0,1,.392-1.458,14.85,14.85,0,0,1,.685-1.65,11.881,11.881,0,0,1,1.024-1.709,11.141,11.141,0,0,1,1.409-1.6,11.734,11.734,0,0,1,1.744-1.342,13.8,13.8,0,0,1,1.951-1.017,20.708,20.708,0,0,1,2-.734c.661-.2,1.311-.364,1.93-.5.311-.066.612-.126.905-.182s.577-.1.849-.143c.545-.084,1.049-.147,1.5-.192l.626-.059c.192-.014.371-.028.531-.042.322-.028.573-.035.748-.045S26.11,146.919,26.11,146.919Z" transform="translate(500.392 803.855)" fill="#e8f3f5"/><path d="M26.17,147.779l-.262.049c-.171.031-.419.077-.738.133-.157.028-.332.063-.521.1s-.395.077-.612.119-.451.094-.692.147-.5.108-.766.168c-.531.122-1.1.273-1.7.437-.15.042-.3.087-.451.133l-.458.147c-.154.049-.311.1-.465.154s-.315.1-.472.161-.315.115-.475.175-.315.129-.475.192-.315.14-.475.21-.318.14-.475.217l-.238.112-.234.119c-.157.08-.315.157-.465.248l-.231.129-.1.059-.115.073-.234.143c-.08.049-.157.1-.227.143-.143.094-.29.182-.433.283s-.29.2-.43.3-.28.21-.412.322-.269.22-.4.336-.255.231-.378.35-.248.234-.367.357-.234.241-.346.367-.22.252-.325.378a12.825,12.825,0,0,0-1.091,1.556c-.15.262-.29.524-.419.783-.031.063-.066.129-.1.192s-.059.129-.087.192c-.056.126-.119.255-.164.371s-.1.255-.147.374-.087.234-.129.35c-.084.231-.154.454-.217.664-.119.423-.213.8-.276,1.112s-.1.563-.122.734-.031.262-.031.262a7.545,7.545,0,0,1,.028-1.007,11.423,11.423,0,0,1,.161-1.147,10.654,10.654,0,0,1,.385-1.454,12.25,12.25,0,0,1,.7-1.639,11.03,11.03,0,0,1,1.066-1.678,11.832,11.832,0,0,1,1.44-1.563,13.314,13.314,0,0,1,1.744-1.335,15.629,15.629,0,0,1,1.933-1.042A18.771,18.771,0,0,1,18.853,149c.657-.21,1.3-.388,1.916-.524.308-.073.608-.129.9-.189s.573-.108.846-.147c.545-.087,1.045-.147,1.489-.192l.622-.059c.192-.014.371-.028.531-.038.322-.024.573-.031.745-.042S26.17,147.779,26.17,147.779Z" transform="translate(500.354 803.257)" fill="#1b1c38"/><path d="M130.343,139.4a.294.294,0,0,1-.129-.031.28.28,0,0,1-.122-.378l1.6-3.115a.281.281,0,0,1,.5.255l-1.6,3.115A.27.27,0,0,1,130.343,139.4Z" transform="translate(416.473 811.637)" fill="#1b1c38"/><path d="M79.733,127.279l1.475-2.727a.2.2,0,0,0-.353-.192l-1.461,2.7-.154.154h-.489l-.07-.15-.364.168,1.632,3.527a.454.454,0,0,0-.343.391h.524l.077.164.357-.164h.3c0-.21-.21-.384-.489-.43l-1.29-2.786.612-.615A.064.064,0,0,0,79.733,127.279Z" transform="translate(452.447 819.612)" fill="#e8f3f5"/><path d="M82.644,131.45H75.5a.21.21,0,0,1-.157-.073.2.2,0,0,1-.038-.168L76.453,126a2.225,2.225,0,0,1,1.409-1.618s.007,0,.014,0a2.56,2.56,0,0,1,.71-.1l3.957.024a.2.2,0,0,1,.2.2l.1,6.725c0,.01,0,.021,0,.031A.2.2,0,0,1,82.644,131.45Zm-6.9-.4h6.694l-.1-6.355-3.761-.021a2.092,2.092,0,0,0-.587.084,1.825,1.825,0,0,0-1.15,1.325Z" transform="translate(454.548 819.597)" fill="#e8f3f5"/><path d="M109.606,131.5H99.885a.2.2,0,0,1-.2-.2v-6.757a.2.2,0,0,1,.2-.2h11.036a.2.2,0,0,1,.2.161l.846,4.177a1.558,1.558,0,0,1-.35,1.325l-.842.965A1.544,1.544,0,0,1,109.606,131.5Zm-9.518-.4h9.518a1.146,1.146,0,0,0,.863-.392l.842-.965a1.145,1.145,0,0,0,.259-.979l-.814-4.016H100.088Z" transform="translate(437.59 819.549)" fill="#e8f3f5"/><path d="M171.319,145.83s-.1,0-.28.014-.451.021-.793.035c-.685.028-1.66.063-2.835.091-.587.014-1.22.031-1.895.042s-1.381.028-2.111.031-1.489.021-2.258.021-1.552.007-2.332.007-1.563-.007-2.332-.007-1.528-.014-2.258-.021-1.44-.021-2.111-.031-1.307-.028-1.895-.042c-1.171-.028-2.15-.063-2.835-.091-.343-.014-.612-.028-.793-.035s-.28-.014-.28-.014.1,0,.28-.014.451-.021.793-.035c.685-.028,1.66-.063,2.835-.091.587-.014,1.22-.031,1.895-.042s1.381-.028,2.111-.031,1.489-.021,2.258-.021,1.552-.007,2.332-.007,1.563.007,2.332.007,1.528.014,2.258.021,1.44.021,2.111.031,1.307.028,1.895.042c1.171.028,2.15.063,2.835.091.343.014.612.028.793.035S171.319,145.83,171.319,145.83Z" transform="translate(405.174 804.78)" fill="#1b1c38"/><path d="M40.944,177.074a4.82,4.82,0,0,0-4.813,4.813,4.746,4.746,0,0,0,.308,1.688v.007c.007.017.014.035.021.056a4.811,4.811,0,1,0,4.485-6.565Zm-2.534,8.683a4.626,4.626,0,0,1-1.283-1.318,4.828,4.828,0,0,1-.461-.944,4.767,4.767,0,0,1-.245-1.091c-.01-.094-.017-.192-.021-.29,0-.049,0-.1,0-.147v-.073l0-.066a4.736,4.736,0,0,1,.056-.6c.017-.1.028-.2.052-.294s.052-.2.077-.3a2.872,2.872,0,0,1,.094-.294l.052-.147.028-.073.035-.07.136-.283c.045-.094.108-.182.161-.273l.084-.136c.031-.042.063-.084.094-.129.063-.084.126-.175.2-.255a5.11,5.11,0,0,1,.965-.874,4.954,4.954,0,0,1,1.192-.58l.322-.087.08-.021.084-.014.164-.028.168-.028a1.352,1.352,0,0,1,.168-.014l.329-.021a5.117,5.117,0,0,1,1.339.189,4.583,4.583,0,0,1,2.2,1.433c.07.084.133.171.2.259l.1.129.084.136c.056.094.119.182.164.276s.094.192.14.287a4.526,4.526,0,0,1,.353,1.2,4.472,4.472,0,0,1,.056.6,4.184,4.184,0,0,1-.021.594,4.577,4.577,0,0,1-.259,1.108c-.028.08-.07.171-.1.255-.01.028-.024.052-.035.08a4.655,4.655,0,0,1-4.209,2.681,4.576,4.576,0,0,1-1.3-.189A4.475,4.475,0,0,1,38.41,185.757Z" transform="translate(481.777 782.89)" fill="#fff"/><path d="M70.839,118.084s.045.021.119.063.178.1.3.185a7.866,7.866,0,0,1,.842.643,9.22,9.22,0,0,1,.762.738c.1.108.175.2.227.269s.08.108.08.108-.045-.021-.119-.063-.178-.1-.3-.185a7.87,7.87,0,0,1-.842-.643,9.22,9.22,0,0,1-.762-.738c-.1-.108-.175-.2-.227-.269Z" transform="translate(457.646 823.903)" fill="#1b1c38"/><path d="M87.883,116.666c.08-.192.171-.374.266-.556.049-.091.094-.182.143-.269s.1-.178.15-.266c.206-.353.423-.7.654-1.031l-.014.129c-.038-.108-.073-.217-.1-.329s-.063-.22-.094-.332l-.042-.168c-.014-.056-.028-.112-.038-.168-.024-.112-.045-.227-.059-.343.063.1.122.2.178.3.028.049.056.1.08.154s.052.1.077.154c.049.1.1.206.143.315s.091.21.133.318l.024.066-.038.063c-.217.346-.44.682-.682,1.01l-.182.245c-.059.08-.126.161-.189.241C88.159,116.359,88.026,116.516,87.883,116.666Z" transform="translate(445.796 827.204)" fill="#1b1c38"/><rect width="2.919" height="2.919" transform="translate(552.797 912.243)" fill="#1b1c38"/><rect width="2.919" height="2.919" transform="translate(552.797 917.591)" fill="#1b1c38"/><rect width="2.919" height="2.919" transform="translate(558.267 928.287)" fill="#1b1c38"/><rect width="2.919" height="2.919" transform="translate(547.326 928.287)" fill="#1b1c38"/><rect width="2.919" height="2.919" transform="translate(547.326 933.636)" fill="#1b1c38"/><rect width="2.919" height="2.919" transform="translate(552.797 922.939)" fill="#1b1c38"/><rect width="2.919" height="2.919" transform="translate(558.267 912.243)" fill="#1b1c38"/><rect width="2.919" height="2.919" transform="translate(558.267 922.939)" fill="#1b1c38"/><rect width="2.919" height="2.919" transform="translate(558.267 917.591)" fill="#1b1c38"/><rect width="2.919" height="2.919" transform="translate(552.797 944.329)" fill="#1b1c38"/><rect width="2.919" height="2.919" transform="translate(552.797 938.98)" fill="#1b1c38"/><rect width="2.919" height="2.919" transform="translate(552.797 933.636)" fill="#1b1c38"/><rect width="2.604" height="2.604" transform="translate(535.979 927.725)" fill="#1b1c38"/><rect width="2.919" height="2.919" transform="translate(547.326 922.939)" fill="#1b1c38"/><rect width="2.604" height="2.604" transform="translate(535.979 932.195)" fill="#1b1c38"/><rect width="2.919" height="2.919" transform="translate(558.267 933.636)" fill="#1b1c38"/><rect width="2.604" height="2.604" transform="translate(526.209 932.195)" fill="#1b1c38"/><rect width="2.604" height="2.604" transform="translate(526.209 927.725)" fill="#1b1c38"/><rect width="2.604" height="2.604" transform="translate(526.209 936.663)" fill="#1b1c38"/><rect width="2.919" height="2.919" transform="translate(547.326 912.243)" fill="#1b1c38"/><rect width="2.919" height="2.919" transform="translate(547.326 917.591)" fill="#1b1c38"/><rect width="2.604" height="2.604" transform="translate(531.093 936.663)" fill="#1b1c38"/><rect width="2.604" height="2.604" transform="translate(531.093 932.195)" fill="#1b1c38"/><rect width="2.604" height="2.604" transform="translate(535.979 936.663)" fill="#1b1c38"/><rect width="2.604" height="2.604" transform="translate(531.093 927.725)" fill="#1b1c38"/><rect width="2.919" height="2.919" transform="translate(552.797 928.287)" fill="#1b1c38"/><rect width="1.702" height="1.702" transform="translate(510.99 950.138)" fill="#1b1c38"/><rect width="1.702" height="1.702" transform="translate(514.181 943.993)" fill="#1b1c38"/><rect width="1.702" height="1.702" transform="translate(510.99 947.066)" fill="#1b1c38"/><rect width="1.702" height="1.702" transform="translate(510.99 940.92)" fill="#1b1c38"/><rect width="1.702" height="1.702" transform="translate(510.99 943.993)" fill="#1b1c38"/><rect width="1.702" height="1.702" transform="translate(514.181 940.92)" fill="#1b1c38"/><rect width="1.702" height="1.702" transform="translate(517.376 947.066)" fill="#1b1c38"/><rect width="1.702" height="1.702" transform="translate(514.181 947.066)" fill="#1b1c38"/><rect width="1.702" height="1.702" transform="translate(517.376 940.92)" fill="#1b1c38"/><rect width="1.702" height="1.702" transform="translate(517.376 943.993)" fill="#1b1c38"/><rect width="2.604" height="2.604" transform="translate(580.513 948.715)" fill="#1b1c38"/><rect width="2.604" height="2.604" transform="translate(575.626 943.927)" fill="#1b1c38"/><rect width="2.604" height="2.604" transform="translate(580.513 939.138)" fill="#1b1c38"/><rect width="2.604" height="2.604" transform="translate(580.513 943.927)" fill="#1b1c38"/><rect width="2.604" height="2.604" transform="translate(575.626 939.138)" fill="#1b1c38"/><rect width="2.919" height="2.919" transform="translate(558.267 944.329)" fill="#1b1c38"/><rect width="2.604" height="2.604" transform="translate(570.743 943.927)" fill="#1b1c38"/><rect width="2.604" height="2.604" transform="translate(570.743 939.138)" fill="#1b1c38"/><rect width="2.919" height="2.919" transform="translate(558.267 938.98)" fill="#1b1c38"/><rect width="0.482" height="1.031" transform="translate(523.203 949.659)" fill="#1b1c38"/><rect width="0.241" height="1.045" transform="translate(550.168 953.756)" fill="#1b1c38"/><rect width="0.423" height="7.155" transform="translate(537.056 943.892)" fill="#e8f3f5"/><rect width="5.908" height="0.322" transform="translate(560.899 959.884)" fill="#1b1c38"/><rect width="0.787" height="6.656" transform="translate(538.15 944.192)" fill="#e8f3f5"/><path d="M137.594,157.812l1.765-.077v.391l-1.765-.077Z" transform="translate(411.235 796.335)" fill="#1b1c38"/><path d="M171.493,150.124l-24.493-.2,24.493-.2Z" transform="translate(404.696 801.901)" fill="#1b1c38"/><path d="M74.18,148.605l7.138.283-7.141.119Z" transform="translate(455.326 802.683)" fill="#1b1c38"/><path d="M83.463,140.131H76.769l.619-2.789h6.033Z" transform="translate(453.523 810.514)" fill="#736d6c"/><circle cx="0.164" cy="0.164" r="0.164" transform="translate(531.19 946.992)" fill="#1b1c38"/><circle cx="0.147" cy="0.147" r="0.147" transform="translate(532.075 947.027)" fill="#1b1c38"/></g></g><g transform="translate(-3)"><g transform="translate(2063 -337)" clip-path="url(#a)"><path d="M5.869,28.617H4.67v-10.2H6.16q1.094,2.534,2.754,7.445h0q.338,1.032.536,1.543h0q.2-.582.338-1h0q1.8-5.307,2.974-7.99h1.456v10.2h-1.2v-8.5q-.833,2.708-3.03,8.5H8.915q-1.921-4.709-3.046-8.48h0Zm19.41,0H19.067v-10.2h6v1.016h-4.8V22.8h4.046v1.016H20.263V27.6h5.016Zm5.54,0h-1.2v-10.2H30.71q1.462,2.212,5.109,8.312h0V18.415h1.187v10.2H35.9q-.874-1.307-3.551-5.645h0q-1.125-1.834-1.527-2.51h0ZM43.98,19.431H40.872V18.415h7.674v1.016H45.176v9.186h-1.2Zm7.464,4.108h0A5.867,5.867,0,0,1,52.7,19.667h0a3.861,3.861,0,0,1,3.126-1.447h0a3.9,3.9,0,0,1,3.439,1.84h0a6.2,6.2,0,0,1,.951,3.479h0a5.769,5.769,0,0,1-1.258,3.848h0a3.892,3.892,0,0,1-3.132,1.425h0a3.9,3.9,0,0,1-3.433-1.825h0A6.051,6.051,0,0,1,51.443,23.54Zm1.273,0h0a5.052,5.052,0,0,0,.889,3.173h0a2.668,2.668,0,0,0,2.221,1.047h0a2.682,2.682,0,0,0,2.438-1.354h0a5.425,5.425,0,0,0,.679-2.866h0a5.148,5.148,0,0,0-.889-3.194h0a2.636,2.636,0,0,0-2.228-1.1h0a2.667,2.667,0,0,0-2.432,1.4h0A5.543,5.543,0,0,0,52.717,23.54Zm12.957,5.078h-1.2v-10.2a18.747,18.747,0,0,1,2.488-.2h0q3.6,0,3.6,3.076h0a2.8,2.8,0,0,1-1.8,2.857h0l2.048,4.464H69.608l-1.89-4.173-.015-.015a6.193,6.193,0,0,1-.675.031h0a9.729,9.729,0,0,1-1.354-.1h0Zm0-9.335v4.108a8.982,8.982,0,0,0,1.292.1h0q2.352,0,2.352-2.181h0q0-2.141-2.352-2.141h0a6.585,6.585,0,0,0-1.292.112Zm15.1,9.319h0V18.415a17.338,17.338,0,0,1,2.454-.2h0a5.034,5.034,0,0,1,4,1.58h0a5.2,5.2,0,0,1,1.205,3.575h0a5.5,5.5,0,0,1-1.5,4.179h0A5.05,5.05,0,0,1,83.3,28.813h0A16.961,16.961,0,0,1,80.771,28.6Zm1.2-9.319v8.461a9.544,9.544,0,0,0,1.338.1h0a3.583,3.583,0,0,0,2.934-1.23h0a4.771,4.771,0,0,0,.914-3.107h0a4.4,4.4,0,0,0-1.267-3.386h0a3.725,3.725,0,0,0-2.627-.951h0a5.818,5.818,0,0,0-1.292.112Zm11.925,9.335H92.7v-10.2a18.747,18.747,0,0,1,2.488-.2h0q3.6,0,3.6,3.076h0a2.8,2.8,0,0,1-1.8,2.857h0l2.048,4.464H97.826l-1.89-4.173-.015-.015a6.193,6.193,0,0,1-.675.031h0a9.729,9.729,0,0,1-1.354-.1h0Zm0-9.335v4.108a8.982,8.982,0,0,0,1.292.1h0q2.352,0,2.352-2.181h0q0-2.141-2.352-2.141h0a6.585,6.585,0,0,0-1.292.112ZM104.3,28.617h-1.2v-10.2h1.2v10.2Zm7.383,0-3.674-10.2H109.3l2.881,8.461,2.857-8.461h1.286l-3.668,10.2Zm9.555,0h-1.2v-10.2h1.2Zm6.11,0h-1.2v-10.2h1.084q1.465,2.212,5.109,8.312h0V18.415h1.19v10.2H132.43q-.874-1.307-3.551-5.645h0q-1.128-1.834-1.527-2.51h0ZM137.8,23.54h0a5.883,5.883,0,0,1,1.258-3.817h0a3.831,3.831,0,0,1,3.1-1.5h0a4.452,4.452,0,0,1,2.872,1.013h0l-.486.694a4.23,4.23,0,0,0-2.252-.679h0a2.789,2.789,0,0,0-2.37,1.261h0a5.3,5.3,0,0,0-.843,3.092h0a4.627,4.627,0,0,0,1.016,3.2h0a2.877,2.877,0,0,0,2.237.96h.022a4.868,4.868,0,0,0,1.936-.387h0V24.249h-1.825V23.2h3v4.691a6.232,6.232,0,0,1-3.253.92h0a3.9,3.9,0,0,1-3.485-1.84h0A6.174,6.174,0,0,1,137.8,23.54Zm17.48,4.241h0l.52-.731a4.929,4.929,0,0,0,2.494.679h0a2.462,2.462,0,0,0,1.6-.474,1.63,1.63,0,0,0,.582-1.345h0q0-1.481-1.952-2.156h0a6.745,6.745,0,0,1-2.4-1.261,2.225,2.225,0,0,1-.74-1.692h0a2.308,2.308,0,0,1,.939-1.921h0a3.563,3.563,0,0,1,2.234-.66h0a4.784,4.784,0,0,1,2.754.84h0l-.527.725a4.467,4.467,0,0,0-2.147-.536h0a2.434,2.434,0,0,0-1.484.406,1.3,1.3,0,0,0-.548,1.1h0q0,1.078,1.676,1.707h0a7.871,7.871,0,0,1,2.674,1.487,2.689,2.689,0,0,1,.768,1.992h0a2.613,2.613,0,0,1-1.087,2.212h0a3.517,3.517,0,0,1-2.156.66h0A5.858,5.858,0,0,1,155.285,27.781Zm9.911-4.164h0a6.04,6.04,0,0,1,1.258-3.894h0a3.759,3.759,0,0,1,3.049-1.5h0a4.557,4.557,0,0,1,2.918,1.013h0l-.486.694a4.1,4.1,0,0,0-2.206-.679h0a2.8,2.8,0,0,0-2.432,1.276h0a5.283,5.283,0,0,0-.824,3.092h0a4.393,4.393,0,0,0,1.063,3.142h0a3.009,3.009,0,0,0,2.321.985h0a3.746,3.746,0,0,0,2.212-.756h0l.48.725a4.261,4.261,0,0,1-2.85,1.1h0a4.065,4.065,0,0,1-3.47-1.716h0A5.706,5.706,0,0,1,165.2,23.617Zm12.814,5h-1.2v-10.2h1.2V22.8h5.171V18.415h1.2v10.2h-1.2v-4.8H178.01Zm10.633-5.078h0a5.858,5.858,0,0,1,1.261-3.873h0a3.858,3.858,0,0,1,3.123-1.447h0a3.912,3.912,0,0,1,3.442,1.84h0a6.2,6.2,0,0,1,.951,3.479h0a5.769,5.769,0,0,1-1.258,3.848h0a3.9,3.9,0,0,1-3.135,1.425h0a3.9,3.9,0,0,1-3.43-1.825h0A6.036,6.036,0,0,1,188.643,23.54Zm1.276,0h0a5.052,5.052,0,0,0,.889,3.173h0a2.665,2.665,0,0,0,2.218,1.047h0a2.684,2.684,0,0,0,2.441-1.354h0a5.425,5.425,0,0,0,.678-2.866h0a5.135,5.135,0,0,0-.892-3.194h0a2.631,2.631,0,0,0-2.228-1.1h0a2.671,2.671,0,0,0-2.432,1.4h0A5.563,5.563,0,0,0,189.919,23.54Zm11.113,0h0a5.858,5.858,0,0,1,1.261-3.873h0a3.858,3.858,0,0,1,3.123-1.447h0a3.912,3.912,0,0,1,3.442,1.84h0a6.2,6.2,0,0,1,.951,3.479h0a5.759,5.759,0,0,1-1.261,3.848h0a3.892,3.892,0,0,1-3.132,1.425h0a3.891,3.891,0,0,1-3.43-1.825h0A6.036,6.036,0,0,1,201.033,23.54Zm1.276,0h0a5.052,5.052,0,0,0,.889,3.173h0a2.665,2.665,0,0,0,2.218,1.047h0a2.684,2.684,0,0,0,2.441-1.354h0a5.445,5.445,0,0,0,.675-2.866h0a5.148,5.148,0,0,0-.889-3.194h0a2.631,2.631,0,0,0-2.228-1.1h0a2.671,2.671,0,0,0-2.432,1.4h0A5.564,5.564,0,0,0,202.309,23.54Zm16.969,5.078h-5.211v-10.2h1.2V27.6h4.012Z" transform="translate(127.418 26.856)" fill="#1b1c38"/></g><g transform="translate(2001 -340)" clip-path="url(#b)"><path d="M5.869,28.617H4.67v-10.2H6.16q1.094,2.534,2.754,7.445h0q.338,1.032.536,1.543h0q.2-.582.338-1h0q1.8-5.307,2.974-7.99h1.456v10.2h-1.2v-8.5q-.833,2.708-3.03,8.5H8.915q-1.921-4.709-3.046-8.48h0Zm19.41,0H19.067v-10.2h6v1.016h-4.8V22.8h4.046v1.016H20.263V27.6h5.016Zm5.54,0h-1.2v-10.2H30.71q1.462,2.212,5.109,8.312h0V18.415h1.187v10.2H35.9q-.874-1.307-3.551-5.645h0q-1.125-1.834-1.527-2.51h0ZM43.98,19.431H40.872V18.415h7.674v1.016H45.176v9.186h-1.2Zm7.464,4.108h0A5.867,5.867,0,0,1,52.7,19.667h0a3.861,3.861,0,0,1,3.126-1.447h0a3.9,3.9,0,0,1,3.439,1.84h0a6.2,6.2,0,0,1,.951,3.479h0a5.769,5.769,0,0,1-1.258,3.848h0a3.892,3.892,0,0,1-3.132,1.425h0a3.9,3.9,0,0,1-3.433-1.825h0A6.051,6.051,0,0,1,51.443,23.54Zm1.273,0h0a5.052,5.052,0,0,0,.889,3.173h0a2.668,2.668,0,0,0,2.221,1.047h0a2.682,2.682,0,0,0,2.438-1.354h0a5.425,5.425,0,0,0,.679-2.866h0a5.148,5.148,0,0,0-.889-3.194h0a2.636,2.636,0,0,0-2.228-1.1h0a2.667,2.667,0,0,0-2.432,1.4h0A5.543,5.543,0,0,0,52.717,23.54Zm12.957,5.078h-1.2v-10.2a18.747,18.747,0,0,1,2.488-.2h0q3.6,0,3.6,3.076h0a2.8,2.8,0,0,1-1.8,2.857h0l2.048,4.464H69.608l-1.89-4.173-.015-.015a6.193,6.193,0,0,1-.675.031h0a9.729,9.729,0,0,1-1.354-.1h0Zm0-9.335v4.108a8.982,8.982,0,0,0,1.292.1h0q2.352,0,2.352-2.181h0q0-2.141-2.352-2.141h0a6.585,6.585,0,0,0-1.292.112Zm15.1,9.319h0V18.415a17.338,17.338,0,0,1,2.454-.2h0a5.034,5.034,0,0,1,4,1.58h0a5.2,5.2,0,0,1,1.205,3.575h0a5.5,5.5,0,0,1-1.5,4.179h0A5.05,5.05,0,0,1,83.3,28.813h0A16.961,16.961,0,0,1,80.771,28.6Zm1.2-9.319v8.461a9.544,9.544,0,0,0,1.338.1h0a3.583,3.583,0,0,0,2.934-1.23h0a4.771,4.771,0,0,0,.914-3.107h0a4.4,4.4,0,0,0-1.267-3.386h0a3.725,3.725,0,0,0-2.627-.951h0a5.818,5.818,0,0,0-1.292.112Zm11.925,9.335H92.7v-10.2a18.747,18.747,0,0,1,2.488-.2h0q3.6,0,3.6,3.076h0a2.8,2.8,0,0,1-1.8,2.857h0l2.048,4.464H97.826l-1.89-4.173-.015-.015a6.193,6.193,0,0,1-.675.031h0a9.729,9.729,0,0,1-1.354-.1h0Zm0-9.335v4.108a8.982,8.982,0,0,0,1.292.1h0q2.352,0,2.352-2.181h0q0-2.141-2.352-2.141h0a6.585,6.585,0,0,0-1.292.112ZM104.3,28.617h-1.2v-10.2h1.2v10.2Zm7.383,0-3.674-10.2H109.3l2.881,8.461,2.857-8.461h1.286l-3.668,10.2Zm9.555,0h-1.2v-10.2h1.2Zm6.11,0h-1.2v-10.2h1.084q1.465,2.212,5.109,8.312h0V18.415h1.19v10.2H132.43q-.874-1.307-3.551-5.645h0q-1.128-1.834-1.527-2.51h0ZM137.8,23.54h0a5.883,5.883,0,0,1,1.258-3.817h0a3.831,3.831,0,0,1,3.1-1.5h0a4.452,4.452,0,0,1,2.872,1.013h0l-.486.694a4.23,4.23,0,0,0-2.252-.679h0a2.789,2.789,0,0,0-2.37,1.261h0a5.3,5.3,0,0,0-.843,3.092h0a4.627,4.627,0,0,0,1.016,3.2h0a2.877,2.877,0,0,0,2.237.96h.022a4.868,4.868,0,0,0,1.936-.387h0V24.249h-1.825V23.2h3v4.691a6.232,6.232,0,0,1-3.253.92h0a3.9,3.9,0,0,1-3.485-1.84h0A6.174,6.174,0,0,1,137.8,23.54Zm17.48,4.241h0l.52-.731a4.929,4.929,0,0,0,2.494.679h0a2.462,2.462,0,0,0,1.6-.474,1.63,1.63,0,0,0,.582-1.345h0q0-1.481-1.952-2.156h0a6.745,6.745,0,0,1-2.4-1.261,2.225,2.225,0,0,1-.74-1.692h0a2.308,2.308,0,0,1,.939-1.921h0a3.563,3.563,0,0,1,2.234-.66h0a4.784,4.784,0,0,1,2.754.84h0l-.527.725a4.467,4.467,0,0,0-2.147-.536h0a2.434,2.434,0,0,0-1.484.406,1.3,1.3,0,0,0-.548,1.1h0q0,1.078,1.676,1.707h0a7.871,7.871,0,0,1,2.674,1.487,2.689,2.689,0,0,1,.768,1.992h0a2.613,2.613,0,0,1-1.087,2.212h0a3.517,3.517,0,0,1-2.156.66h0A5.858,5.858,0,0,1,155.285,27.781Zm9.911-4.164h0a6.04,6.04,0,0,1,1.258-3.894h0a3.759,3.759,0,0,1,3.049-1.5h0a4.557,4.557,0,0,1,2.918,1.013h0l-.486.694a4.1,4.1,0,0,0-2.206-.679h0a2.8,2.8,0,0,0-2.432,1.276h0a5.283,5.283,0,0,0-.824,3.092h0a4.393,4.393,0,0,0,1.063,3.142h0a3.009,3.009,0,0,0,2.321.985h0a3.746,3.746,0,0,0,2.212-.756h0l.48.725a4.261,4.261,0,0,1-2.85,1.1h0a4.065,4.065,0,0,1-3.47-1.716h0A5.706,5.706,0,0,1,165.2,23.617Zm12.814,5h-1.2v-10.2h1.2V22.8h5.171V18.415h1.2v10.2h-1.2v-4.8H178.01Zm10.633-5.078h0a5.858,5.858,0,0,1,1.261-3.873h0a3.858,3.858,0,0,1,3.123-1.447h0a3.912,3.912,0,0,1,3.442,1.84h0a6.2,6.2,0,0,1,.951,3.479h0a5.769,5.769,0,0,1-1.258,3.848h0a3.9,3.9,0,0,1-3.135,1.425h0a3.9,3.9,0,0,1-3.43-1.825h0A6.036,6.036,0,0,1,188.643,23.54Zm1.276,0h0a5.052,5.052,0,0,0,.889,3.173h0a2.665,2.665,0,0,0,2.218,1.047h0a2.684,2.684,0,0,0,2.441-1.354h0a5.425,5.425,0,0,0,.678-2.866h0a5.135,5.135,0,0,0-.892-3.194h0a2.631,2.631,0,0,0-2.228-1.1h0a2.671,2.671,0,0,0-2.432,1.4h0A5.563,5.563,0,0,0,189.919,23.54Zm11.113,0h0a5.858,5.858,0,0,1,1.261-3.873h0a3.858,3.858,0,0,1,3.123-1.447h0a3.912,3.912,0,0,1,3.442,1.84h0a6.2,6.2,0,0,1,.951,3.479h0a5.759,5.759,0,0,1-1.261,3.848h0a3.892,3.892,0,0,1-3.132,1.425h0a3.891,3.891,0,0,1-3.43-1.825h0A6.036,6.036,0,0,1,201.033,23.54Zm1.276,0h0a5.052,5.052,0,0,0,.889,3.173h0a2.665,2.665,0,0,0,2.218,1.047h0a2.684,2.684,0,0,0,2.441-1.354h0a5.445,5.445,0,0,0,.675-2.866h0a5.148,5.148,0,0,0-.889-3.194h0a2.631,2.631,0,0,0-2.228-1.1h0a2.671,2.671,0,0,0-2.432,1.4h0A5.564,5.564,0,0,0,202.309,23.54Zm16.969,5.078h-5.211v-10.2h1.2V27.6h4.012Z" transform="translate(127.418 45.235)" fill="#1b1c38"/></g><g transform="translate(1940 -342)" clip-path="url(#c)"><path d="M5.869,28.617H4.67v-10.2H6.16q1.094,2.534,2.754,7.445h0q.338,1.032.536,1.543h0q.2-.582.338-1h0q1.8-5.307,2.974-7.99h1.456v10.2h-1.2v-8.5q-.833,2.708-3.03,8.5H8.915q-1.921-4.709-3.046-8.48h0Zm19.41,0H19.067v-10.2h6v1.016h-4.8V22.8h4.046v1.016H20.263V27.6h5.016Zm5.54,0h-1.2v-10.2H30.71q1.462,2.212,5.109,8.312h0V18.415h1.187v10.2H35.9q-.874-1.307-3.551-5.645h0q-1.125-1.834-1.527-2.51h0ZM43.98,19.431H40.872V18.415h7.674v1.016H45.176v9.186h-1.2Zm7.464,4.108h0A5.867,5.867,0,0,1,52.7,19.667h0a3.861,3.861,0,0,1,3.126-1.447h0a3.9,3.9,0,0,1,3.439,1.84h0a6.2,6.2,0,0,1,.951,3.479h0a5.769,5.769,0,0,1-1.258,3.848h0a3.892,3.892,0,0,1-3.132,1.425h0a3.9,3.9,0,0,1-3.433-1.825h0A6.051,6.051,0,0,1,51.443,23.54Zm1.273,0h0a5.052,5.052,0,0,0,.889,3.173h0a2.668,2.668,0,0,0,2.221,1.047h0a2.682,2.682,0,0,0,2.438-1.354h0a5.425,5.425,0,0,0,.679-2.866h0a5.148,5.148,0,0,0-.889-3.194h0a2.636,2.636,0,0,0-2.228-1.1h0a2.667,2.667,0,0,0-2.432,1.4h0A5.543,5.543,0,0,0,52.717,23.54Zm12.957,5.078h-1.2v-10.2a18.747,18.747,0,0,1,2.488-.2h0q3.6,0,3.6,3.076h0a2.8,2.8,0,0,1-1.8,2.857h0l2.048,4.464H69.608l-1.89-4.173-.015-.015a6.193,6.193,0,0,1-.675.031h0a9.729,9.729,0,0,1-1.354-.1h0Zm0-9.335v4.108a8.982,8.982,0,0,0,1.292.1h0q2.352,0,2.352-2.181h0q0-2.141-2.352-2.141h0a6.585,6.585,0,0,0-1.292.112Zm15.1,9.319h0V18.415a17.338,17.338,0,0,1,2.454-.2h0a5.034,5.034,0,0,1,4,1.58h0a5.2,5.2,0,0,1,1.205,3.575h0a5.5,5.5,0,0,1-1.5,4.179h0A5.05,5.05,0,0,1,83.3,28.813h0A16.961,16.961,0,0,1,80.771,28.6Zm1.2-9.319v8.461a9.544,9.544,0,0,0,1.338.1h0a3.583,3.583,0,0,0,2.934-1.23h0a4.771,4.771,0,0,0,.914-3.107h0a4.4,4.4,0,0,0-1.267-3.386h0a3.725,3.725,0,0,0-2.627-.951h0a5.818,5.818,0,0,0-1.292.112Zm11.925,9.335H92.7v-10.2a18.747,18.747,0,0,1,2.488-.2h0q3.6,0,3.6,3.076h0a2.8,2.8,0,0,1-1.8,2.857h0l2.048,4.464H97.826l-1.89-4.173-.015-.015a6.193,6.193,0,0,1-.675.031h0a9.729,9.729,0,0,1-1.354-.1h0Zm0-9.335v4.108a8.982,8.982,0,0,0,1.292.1h0q2.352,0,2.352-2.181h0q0-2.141-2.352-2.141h0a6.585,6.585,0,0,0-1.292.112ZM104.3,28.617h-1.2v-10.2h1.2v10.2Zm7.383,0-3.674-10.2H109.3l2.881,8.461,2.857-8.461h1.286l-3.668,10.2Zm9.555,0h-1.2v-10.2h1.2Zm6.11,0h-1.2v-10.2h1.084q1.465,2.212,5.109,8.312h0V18.415h1.19v10.2H132.43q-.874-1.307-3.551-5.645h0q-1.128-1.834-1.527-2.51h0ZM137.8,23.54h0a5.883,5.883,0,0,1,1.258-3.817h0a3.831,3.831,0,0,1,3.1-1.5h0a4.452,4.452,0,0,1,2.872,1.013h0l-.486.694a4.23,4.23,0,0,0-2.252-.679h0a2.789,2.789,0,0,0-2.37,1.261h0a5.3,5.3,0,0,0-.843,3.092h0a4.627,4.627,0,0,0,1.016,3.2h0a2.877,2.877,0,0,0,2.237.96h.022a4.868,4.868,0,0,0,1.936-.387h0V24.249h-1.825V23.2h3v4.691a6.232,6.232,0,0,1-3.253.92h0a3.9,3.9,0,0,1-3.485-1.84h0A6.174,6.174,0,0,1,137.8,23.54Zm17.48,4.241h0l.52-.731a4.929,4.929,0,0,0,2.494.679h0a2.462,2.462,0,0,0,1.6-.474,1.63,1.63,0,0,0,.582-1.345h0q0-1.481-1.952-2.156h0a6.745,6.745,0,0,1-2.4-1.261,2.225,2.225,0,0,1-.74-1.692h0a2.308,2.308,0,0,1,.939-1.921h0a3.563,3.563,0,0,1,2.234-.66h0a4.784,4.784,0,0,1,2.754.84h0l-.527.725a4.467,4.467,0,0,0-2.147-.536h0a2.434,2.434,0,0,0-1.484.406,1.3,1.3,0,0,0-.548,1.1h0q0,1.078,1.676,1.707h0a7.871,7.871,0,0,1,2.674,1.487,2.689,2.689,0,0,1,.768,1.992h0a2.613,2.613,0,0,1-1.087,2.212h0a3.517,3.517,0,0,1-2.156.66h0A5.858,5.858,0,0,1,155.285,27.781Zm9.911-4.164h0a6.04,6.04,0,0,1,1.258-3.894h0a3.759,3.759,0,0,1,3.049-1.5h0a4.557,4.557,0,0,1,2.918,1.013h0l-.486.694a4.1,4.1,0,0,0-2.206-.679h0a2.8,2.8,0,0,0-2.432,1.276h0a5.283,5.283,0,0,0-.824,3.092h0a4.393,4.393,0,0,0,1.063,3.142h0a3.009,3.009,0,0,0,2.321.985h0a3.746,3.746,0,0,0,2.212-.756h0l.48.725a4.261,4.261,0,0,1-2.85,1.1h0a4.065,4.065,0,0,1-3.47-1.716h0A5.706,5.706,0,0,1,165.2,23.617Zm12.814,5h-1.2v-10.2h1.2V22.8h5.171V18.415h1.2v10.2h-1.2v-4.8H178.01Zm10.633-5.078h0a5.858,5.858,0,0,1,1.261-3.873h0a3.858,3.858,0,0,1,3.123-1.447h0a3.912,3.912,0,0,1,3.442,1.84h0a6.2,6.2,0,0,1,.951,3.479h0a5.769,5.769,0,0,1-1.258,3.848h0a3.9,3.9,0,0,1-3.135,1.425h0a3.9,3.9,0,0,1-3.43-1.825h0A6.036,6.036,0,0,1,188.643,23.54Zm1.276,0h0a5.052,5.052,0,0,0,.889,3.173h0a2.665,2.665,0,0,0,2.218,1.047h0a2.684,2.684,0,0,0,2.441-1.354h0a5.425,5.425,0,0,0,.678-2.866h0a5.135,5.135,0,0,0-.892-3.194h0a2.631,2.631,0,0,0-2.228-1.1h0a2.671,2.671,0,0,0-2.432,1.4h0A5.563,5.563,0,0,0,189.919,23.54Zm11.113,0h0a5.858,5.858,0,0,1,1.261-3.873h0a3.858,3.858,0,0,1,3.123-1.447h0a3.912,3.912,0,0,1,3.442,1.84h0a6.2,6.2,0,0,1,.951,3.479h0a5.759,5.759,0,0,1-1.261,3.848h0a3.892,3.892,0,0,1-3.132,1.425h0a3.891,3.891,0,0,1-3.43-1.825h0A6.036,6.036,0,0,1,201.033,23.54Zm1.276,0h0a5.052,5.052,0,0,0,.889,3.173h0a2.665,2.665,0,0,0,2.218,1.047h0a2.684,2.684,0,0,0,2.441-1.354h0a5.445,5.445,0,0,0,.675-2.866h0a5.148,5.148,0,0,0-.889-3.194h0a2.631,2.631,0,0,0-2.228-1.1h0a2.671,2.671,0,0,0-2.432,1.4h0A5.564,5.564,0,0,0,202.309,23.54Zm16.969,5.078h-5.211v-10.2h1.2V27.6h4.012Z" transform="translate(127.418 63.614)" fill="#1b1c38"/></g></g></g></svg>